#define im_width 6
#define im_height 32
static char im_bits[] = {
0x00,0x00,0x00,0x00,0x00,0x00,0x00,0x00,0x00,0x00,0x00,0x1e,0x1c,0x1e,0x00,
0x00,0x00,0x00,0x00,0x00,0x00,0x00,0x00,0x00,0x1c,0x1c,0x1e,0x1c,0x00,0x00,
0x00,0x00
};
