#define im_width 16
#define im_height 32
static char im_bits[] = {
0x00,0x00,0x00,0x00,0x00,0x00,0x00,0x00,0xe0,0x07,0xf0,0x1f,0xf8,0x1f,0x7c,
0x3e,0x1c,0x38,0x1e,0x78,0x00,0x38,0x00,0x38,0x00,0x38,0x00,0x1c,0xc0,0x1f,
0x80,0x07,0xc0,0x1f,0x00,0x3c,0x00,0x38,0x00,0x78,0x00,0x78,0x00,0x70,0x1e,
0x78,0x1e,0x78,0x7c,0x3e,0xfc,0x3f,0xf8,0x1f,0xe0,0x07,0x00,0x00,0x00,0x00,
0x00,0x00,0x00,0x00
};
