#define im_width 16
#define im_height 32
static char im_bits[] = {
0x00,0x00,0x00,0x00,0x00,0x00,0x00,0x00,0xf8,0x3f,0xf8,0x7f,0xfc,0x3f,0xb8,
0x2a,0x3c,0x00,0x38,0x00,0x3c,0x00,0x3c,0x00,0xf8,0x0f,0xfc,0x1f,0xf8,0x3f,
0x7c,0x78,0x38,0x78,0x00,0x70,0x00,0x70,0x00,0x70,0x00,0x70,0x00,0x70,0x1c,
0x78,0x3c,0x78,0x78,0x3c,0xf8,0x3f,0xf0,0x1f,0xc0,0x07,0x00,0x00,0x00,0x00,
0x00,0x00,0x00,0x00
};
