#define im_width 15
#define im_height 32
static char im_bits[] = {
0x00,0x00,0x00,0x00,0x00,0x00,0x00,0x00,0xfc,0x3f,0xfe,0x3f,0xfe,0x3f,0x5e,
0x3d,0x1e,0x3c,0x1e,0x3c,0x1e,0x1c,0x00,0x1e,0x00,0x1e,0x00,0x0e,0x00,0x0f,
0x00,0x0f,0x00,0x07,0x00,0x07,0x80,0x07,0x80,0x07,0x80,0x03,0xc0,0x03,0xc0,
0x03,0xc0,0x01,0xe0,0x01,0xe0,0x01,0xe0,0x00,0xe0,0x00,0x00,0x00,0x00,0x00,
0x00,0x00,0x00,0x00
};
