#define im_width 15
#define im_height 32
static char im_bits[] = {
0x00,0x00,0x00,0x00,0x00,0x00,0x00,0x00,0xe0,0x07,0xf8,0x0f,0xfc,0x1f,0x3c,
0x3e,0x1e,0x38,0x1e,0x38,0x0e,0x38,0x0e,0x78,0x0e,0x38,0x0e,0x38,0x0e,0x78,
0x0e,0x38,0x0e,0x38,0x0e,0x78,0x0e,0x38,0x0e,0x38,0x0e,0x78,0x0e,0x38,0x0e,
0x38,0x1e,0x3c,0x3c,0x3c,0xfc,0x1f,0xf8,0x0f,0xe0,0x07,0x00,0x00,0x00,0x00,
0x00,0x00,0x00,0x00
};
