#define 02d_width 32
#define 02d_height 32
static unsigned char 02d_bits[] = {
   0x00, 0x00, 0x00, 0x00, 0x00, 0x00, 0x00, 0x00, 0x00, 0x00, 0x00, 0x00,
   0x00, 0x00, 0x00, 0x00, 0x00, 0x00, 0x00, 0x00, 0x00, 0x00, 0x00, 0x00,
   0x00, 0x00, 0x00, 0x02, 0x00, 0x00, 0xc0, 0x0f, 0x00, 0x00, 0xff, 0x1f,
   0x00, 0x80, 0xe1, 0x1f, 0x00, 0xc0, 0xc0, 0x3f, 0x00, 0x70, 0xc0, 0x3f,
   0x00, 0x4c, 0x80, 0x1f, 0xc0, 0x07, 0x80, 0x1f, 0x60, 0x00, 0x00, 0x1c,
   0x10, 0x00, 0x00, 0x18, 0x18, 0x00, 0x00, 0x10, 0x08, 0x00, 0x00, 0x10,
   0x08, 0x00, 0x00, 0x10, 0x18, 0x00, 0x00, 0x10, 0x10, 0x00, 0x00, 0x18,
   0x60, 0x00, 0x00, 0x0c, 0xc0, 0xff, 0xff, 0x03, 0x00, 0x00, 0x00, 0x00,
   0x00, 0x00, 0x00, 0x00, 0x00, 0x00, 0x00, 0x00, 0x00, 0x00, 0x00, 0x00,
   0x00, 0x00, 0x00, 0x00, 0x00, 0x00, 0x00, 0x00, 0x00, 0x00, 0x00, 0x00,
   0x00, 0x00, 0x00, 0x00, 0x00, 0x00, 0x00, 0x00 };
