#define 02n_width 32
#define 02n_height 32
static unsigned char 02n_bits[] = {
   0x00, 0x00, 0x00, 0x00, 0x00, 0x00, 0x00, 0x00, 0x00, 0x00, 0x00, 0x00,
   0x00, 0x00, 0x00, 0x00, 0x00, 0x00, 0x00, 0x00, 0x00, 0x00, 0x00, 0x00,
   0x00, 0x00, 0x00, 0x00, 0x00, 0x00, 0x00, 0x00, 0x00, 0x00, 0x06, 0x01,
   0x00, 0x80, 0x3d, 0x03, 0x00, 0xc0, 0x60, 0x06, 0x00, 0x40, 0x40, 0x0e,
   0x00, 0x7c, 0xc0, 0x0e, 0x80, 0x06, 0x80, 0x0f, 0xe0, 0x03, 0x40, 0x0f,
   0x30, 0x00, 0x00, 0x0c, 0x18, 0x00, 0x00, 0x18, 0x08, 0x00, 0x00, 0x10,
   0x08, 0x00, 0x00, 0x10, 0x08, 0x00, 0x00, 0x10, 0x18, 0x00, 0x00, 0x18,
   0x30, 0x00, 0x00, 0x08, 0xe0, 0xaa, 0xaa, 0x06, 0x00, 0xef, 0xfb, 0x01,
   0x00, 0x00, 0x00, 0x00, 0x00, 0x00, 0x00, 0x00, 0x00, 0x00, 0x00, 0x00,
   0x00, 0x00, 0x00, 0x00, 0x00, 0x00, 0x00, 0x00, 0x00, 0x00, 0x00, 0x00,
   0x00, 0x00, 0x00, 0x00, 0x00, 0x00, 0x00, 0x00 };
