#define 03d_width 32
#define 03d_height 32
static unsigned char 03d_bits[] = {
   0x00, 0x00, 0x00, 0x00, 0x00, 0x00, 0x00, 0x00, 0x00, 0x00, 0x00, 0x00,
   0x00, 0x00, 0x00, 0x00, 0x00, 0x00, 0x00, 0x00, 0x00, 0x00, 0x00, 0x00,
   0x00, 0x00, 0x00, 0x00, 0x00, 0x00, 0x00, 0x00, 0x00, 0x00, 0x1f, 0x00,
   0x00, 0x80, 0x71, 0x00, 0x00, 0xc0, 0x40, 0x00, 0x00, 0x70, 0xc0, 0x00,
   0x00, 0x6c, 0x80, 0x00, 0xc0, 0x07, 0x80, 0x07, 0x60, 0x00, 0x00, 0x0c,
   0x10, 0x00, 0x00, 0x18, 0x18, 0x00, 0x00, 0x10, 0x08, 0x00, 0x00, 0x10,
   0x08, 0x00, 0x00, 0x10, 0x18, 0x00, 0x00, 0x10, 0x10, 0x00, 0x00, 0x18,
   0x70, 0x00, 0x00, 0x0c, 0xc0, 0xff, 0xff, 0x07, 0x00, 0x00, 0x00, 0x00,
   0x00, 0x00, 0x00, 0x00, 0x00, 0x00, 0x00, 0x00, 0x00, 0x00, 0x00, 0x00,
   0x00, 0x00, 0x00, 0x00, 0x00, 0x00, 0x00, 0x00, 0x00, 0x00, 0x00, 0x00,
   0x00, 0x00, 0x00, 0x00, 0x00, 0x00, 0x00, 0x00 };
