#define 10n_width 32
#define 10n_height 32
static unsigned char 10n_bits[] = {
   0x00, 0x00, 0x00, 0x00, 0x00, 0x00, 0x00, 0x00, 0x00, 0x00, 0x00, 0x00,
   0x00, 0x00, 0x00, 0x00, 0x00, 0x00, 0x00, 0x00, 0x00, 0x00, 0x00, 0x00,
   0x00, 0x00, 0x00, 0x00, 0x00, 0x00, 0x1f, 0x03, 0x00, 0x80, 0x21, 0x07,
   0x00, 0x40, 0x40, 0x0e, 0x00, 0x78, 0x40, 0x0e, 0x00, 0x2c, 0xc0, 0x0e,
   0xc0, 0x03, 0x80, 0x0f, 0x30, 0x00, 0x00, 0x0c, 0x10, 0x00, 0x00, 0x08,
   0x08, 0x00, 0x00, 0x10, 0x08, 0x00, 0x00, 0x10, 0x08, 0x00, 0x00, 0x10,
   0x08, 0x00, 0x00, 0x18, 0x10, 0x00, 0x00, 0x08, 0x30, 0xac, 0x16, 0x0e,
   0xe0, 0xff, 0xff, 0x03, 0x00, 0x5a, 0x0b, 0x00, 0x00, 0x21, 0x04, 0x00,
   0x80, 0xbd, 0x07, 0x00, 0x80, 0xd6, 0x02, 0x00, 0x00, 0x10, 0x02, 0x00,
   0x00, 0xaf, 0x01, 0x00, 0x80, 0xb5, 0x00, 0x00, 0x80, 0xb4, 0x00, 0x00,
   0x00, 0x00, 0x00, 0x00, 0x00, 0x00, 0x00, 0x00 };
