#define 13d_width 32
#define 13d_height 32
static unsigned char 13d_bits[] = {
   0x00, 0x00, 0x00, 0x00, 0x00, 0x00, 0x00, 0x00, 0x00, 0x00, 0x00, 0x00,
   0x00, 0x00, 0x00, 0x00, 0x00, 0x80, 0x01, 0x00, 0x00, 0xb0, 0x0f, 0x00,
   0x00, 0xe4, 0x27, 0x00, 0x00, 0x85, 0xa1, 0x00, 0x80, 0x87, 0xe1, 0x01,
   0x00, 0x87, 0xe1, 0x00, 0xc0, 0x8f, 0xf1, 0x03, 0x00, 0x98, 0x31, 0x00,
   0x20, 0xb8, 0x1d, 0x04, 0x60, 0xe0, 0x0f, 0x06, 0x40, 0x60, 0x06, 0x03,
   0xf0, 0x3f, 0xfc, 0x0f, 0xf0, 0x3f, 0xfc, 0x0f, 0xc0, 0x60, 0x06, 0x03,
   0x60, 0xf0, 0x0f, 0x06, 0x00, 0xb8, 0x19, 0x04, 0x00, 0x8c, 0x39, 0x00,
   0xc0, 0x8f, 0xe1, 0x03, 0x00, 0x87, 0xe1, 0x00, 0x80, 0x87, 0xe1, 0x01,
   0x00, 0xc5, 0xa3, 0x00, 0x00, 0xe4, 0x27, 0x00, 0x00, 0xb0, 0x0d, 0x00,
   0x00, 0x80, 0x01, 0x00, 0x00, 0x00, 0x00, 0x00, 0x00, 0x00, 0x00, 0x00,
   0x00, 0x00, 0x00, 0x00, 0x00, 0x00, 0x00, 0x00 };
