#define circle_closed_width 8
#define circle_closed_height 8
static unsigned char circle_closed_bits[] = {
   0x18, 0x7e, 0x7e, 0xff, 0xff, 0x7e, 0x7e, 0x18 };
