#define color_width 48
#define color_height 16
static unsigned char color_bits[] = {
   0x00, 0x00, 0x00, 0x00, 0x00, 0x00, 0x00, 0x00, 0x00, 0x00, 0x00, 0x00,
   0x3c, 0x20, 0x00, 0x00, 0x00, 0x00, 0x24, 0x20, 0x00, 0x00, 0x00, 0x00,
   0x04, 0x12, 0x82, 0x00, 0x00, 0x00, 0x84, 0x25, 0x75, 0x00, 0x00, 0x00,
   0x84, 0x94, 0x25, 0x00, 0x00, 0x00, 0x84, 0xa4, 0x2c, 0x00, 0x00, 0x00,
   0x84, 0x14, 0x11, 0x00, 0x00, 0x00, 0xa4, 0x34, 0x2d, 0x00, 0x00, 0x00,
   0x3c, 0x27, 0x27, 0x00, 0x00, 0x00, 0x00, 0x20, 0x00, 0x00, 0x00, 0x00,
   0x00, 0x00, 0x00, 0x00, 0x00, 0x00, 0x00, 0x00, 0x00, 0x00, 0x00, 0x00,
   0x00, 0x00, 0x00, 0x00, 0x00, 0x00, 0x00, 0x00, 0x00, 0x00, 0x00, 0x00 };
