#define timer_width 48
#define timer_height 16
static unsigned char timer_bits[] = {
   0x00, 0x00, 0x00, 0x00, 0x00, 0x00, 0x00, 0x00, 0x00, 0x00, 0x00, 0x00,
   0xbe, 0x00, 0x00, 0x00, 0x00, 0x00, 0x08, 0x00, 0x00, 0x00, 0x00, 0x00,
   0x08, 0x48, 0x08, 0x02, 0x00, 0x00, 0x88, 0xd6, 0x94, 0x01, 0x00, 0x00,
   0x48, 0x92, 0xd2, 0x00, 0x00, 0x00, 0x88, 0x92, 0x9e, 0x00, 0x00, 0x00,
   0x88, 0x92, 0xc2, 0x00, 0x00, 0x00, 0x88, 0x92, 0x86, 0x00, 0x00, 0x00,
   0x88, 0x92, 0x9c, 0x00, 0x00, 0x00, 0x00, 0x00, 0x08, 0x00, 0x00, 0x00,
   0x00, 0x00, 0x00, 0x00, 0x00, 0x00, 0x00, 0x00, 0x00, 0x00, 0x00, 0x00,
   0x00, 0x00, 0x00, 0x00, 0x00, 0x00, 0x00, 0x00, 0x00, 0x00, 0x00, 0x00 };
