#define im_width 16
#define im_height 8
static char im_bits[] = {
0xff,0xff,0xff,0xff,0xff,0xff,0x07,0x00,0x07,0x80,0x07,0x80,0x07,0x80,0xf7,
0xff
};
