#define im_width 80
#define im_height 32
static char im_bits[] = {
0x00,0x00,0x00,0x00,0xc0,0x03,0x00,0x00,0x00,0x00,0x00,0x00,0x00,0x00,0xe0,
0x07,0x00,0x00,0x00,0x00,0xfc,0xff,0xff,0xff,0xff,0xff,0xff,0xff,0xff,0x3f,
0x06,0x00,0x00,0x00,0x00,0x00,0x00,0x00,0x00,0x60,0x03,0x00,0x00,0x00,0x00,
0x00,0x00,0x00,0x00,0xc0,0x01,0x00,0x00,0x00,0x00,0x00,0x00,0x00,0x00,0x80,
0x01,0x00,0x00,0x00,0x00,0x00,0x00,0x00,0x00,0x80,0xb7,0x6d,0xff,0xff,0xff,
0xff,0xff,0xff,0x6d,0xdb,0x01,0x00,0x02,0x00,0x00,0x00,0x00,0x40,0x00,0x80,
0x01,0x00,0x02,0x00,0x00,0x00,0x00,0x40,0x00,0x80,0x01,0x00,0x02,0x00,0x00,
0x00,0x00,0x40,0x00,0x80,0x01,0x00,0x02,0x00,0x00,0x00,0x00,0x40,0x00,0x80,
0x01,0x00,0x02,0x00,0x00,0x00,0x00,0x40,0x00,0x80,0x01,0x00,0x02,0x00,0x00,
0x00,0x00,0x40,0x00,0x80,0xc1,0x01,0x02,0x00,0x00,0x00,0x00,0x40,0x80,0x83,
0xe1,0x03,0x02,0x00,0x00,0x00,0x00,0x40,0xc0,0x87,0xf1,0x07,0x02,0x00,0x00,
0x00,0x00,0x40,0xe0,0x8f,0xf1,0x07,0x02,0x00,0x00,0x00,0x00,0x40,0xe0,0x8f,
0xf1,0x07,0xfe,0xff,0xff,0xff,0xff,0x7f,0xe0,0x8f,0xe1,0x03,0x00,0x00,0x00,
0x00,0x00,0x00,0xc0,0x87,0xc1,0x01,0x00,0x00,0x00,0x00,0x00,0x00,0x80,0x83,
0x01,0x00,0x00,0x00,0x00,0x00,0x00,0x00,0x00,0x80,0x01,0x00,0x00,0x00,0x00,
0x00,0x00,0x00,0x00,0x80,0x01,0x00,0x00,0x00,0x00,0x00,0x00,0x00,0x00,0x80,
0x01,0x00,0x00,0x00,0x00,0x00,0x00,0x00,0x00,0x80,0x01,0x00,0x00,0x00,0x00,
0x00,0x00,0x00,0x00,0x80,0x01,0x00,0x00,0x00,0x00,0x00,0x00,0x00,0x00,0x80,
0x01,0x00,0x00,0x00,0x00,0x00,0x00,0x00,0x00,0x80,0x01,0x00,0x00,0x00,0x00,
0x00,0x00,0x00,0x00,0x80,0x03,0x00,0x00,0x00,0x00,0x00,0x00,0x00,0x00,0xc0,
0x06,0x00,0x00,0x00,0x00,0x00,0x00,0x00,0x00,0x60,0xfc,0xff,0xff,0xff,0xff,
0xff,0xff,0xff,0xff,0x3f
};
