#define 01n_width 32
#define 01n_height 32
static unsigned char 01n_bits[] = {
   0x00, 0x00, 0x00, 0x00, 0x00, 0x00, 0x00, 0x00, 0x00, 0x00, 0x00, 0x00,
   0x00, 0x00, 0x00, 0x00, 0x00, 0x40, 0x00, 0x00, 0x00, 0xc0, 0x07, 0x00,
   0x00, 0x80, 0x0f, 0x00, 0x00, 0x80, 0x3f, 0x00, 0x00, 0x00, 0x7f, 0x00,
   0x00, 0x00, 0x7e, 0x00, 0x00, 0x00, 0xfe, 0x00, 0x00, 0x00, 0xfe, 0x01,
   0x00, 0x00, 0xfc, 0x01, 0x00, 0x00, 0xfc, 0x01, 0x00, 0x00, 0xfc, 0x01,
   0x00, 0x00, 0xfc, 0x01, 0x00, 0x00, 0xfc, 0x03, 0x00, 0x00, 0xfc, 0x01,
   0x00, 0x00, 0xfc, 0x01, 0x00, 0x00, 0xfc, 0x01, 0x00, 0x00, 0xfe, 0x01,
   0x00, 0x00, 0xfe, 0x00, 0x00, 0x00, 0x7f, 0x00, 0x00, 0x00, 0x7f, 0x00,
   0x00, 0x80, 0x3f, 0x00, 0x00, 0x80, 0x0f, 0x00, 0x00, 0xc0, 0x03, 0x00,
   0x00, 0x40, 0x00, 0x00, 0x00, 0x00, 0x00, 0x00, 0x00, 0x00, 0x00, 0x00,
   0x00, 0x00, 0x00, 0x00, 0x00, 0x00, 0x00, 0x00 };
