#define 03n_width 32
#define 03n_height 32
static unsigned char 03n_bits[] = {
   0x00, 0x00, 0x00, 0x00, 0x00, 0x00, 0x00, 0x00, 0x00, 0x00, 0x00, 0x00,
   0x00, 0x00, 0x00, 0x00, 0x00, 0x00, 0x00, 0x00, 0x00, 0x00, 0x00, 0x00,
   0x00, 0x00, 0x00, 0x00, 0x00, 0x00, 0x00, 0x00, 0x00, 0x00, 0x06, 0x00,
   0x00, 0x80, 0x3f, 0x00, 0x00, 0xc0, 0x60, 0x00, 0x00, 0x40, 0x40, 0x00,
   0x00, 0x7c, 0xc0, 0x00, 0x80, 0x06, 0x80, 0x01, 0xe0, 0x03, 0x40, 0x07,
   0x30, 0x00, 0x00, 0x0c, 0x18, 0x00, 0x00, 0x18, 0x08, 0x00, 0x00, 0x10,
   0x08, 0x00, 0x00, 0x10, 0x08, 0x00, 0x00, 0x10, 0x18, 0x00, 0x00, 0x18,
   0x30, 0x00, 0x00, 0x0c, 0xe0, 0xaa, 0xaa, 0x07, 0x40, 0xff, 0x7f, 0x01,
   0x00, 0x00, 0x00, 0x00, 0x00, 0x00, 0x00, 0x00, 0x00, 0x00, 0x00, 0x00,
   0x00, 0x00, 0x00, 0x00, 0x00, 0x00, 0x00, 0x00, 0x00, 0x00, 0x00, 0x00,
   0x00, 0x00, 0x00, 0x00, 0x00, 0x00, 0x00, 0x00 };
