#define 04n_width 32
#define 04n_height 32
static unsigned char 04n_bits[] = {
   0x00, 0x00, 0x00, 0x00, 0x00, 0x00, 0x00, 0x00, 0x00, 0x00, 0x00, 0x00,
   0x00, 0x00, 0x00, 0x00, 0x00, 0x00, 0x00, 0x00, 0x00, 0x80, 0x07, 0x00,
   0x00, 0xc0, 0x0c, 0x00, 0x00, 0x30, 0x10, 0x00, 0x00, 0x18, 0x3e, 0x00,
   0x00, 0x1f, 0x3b, 0x00, 0xe0, 0xc1, 0xe0, 0x00, 0x98, 0x40, 0xc0, 0x03,
   0x0c, 0x7c, 0x40, 0x06, 0x84, 0x06, 0xc0, 0x05, 0xe6, 0x03, 0x80, 0x0e,
   0x34, 0x00, 0x00, 0x0c, 0x16, 0x00, 0x00, 0x18, 0x0c, 0x00, 0x00, 0x10,
   0x0c, 0x00, 0x00, 0x10, 0x08, 0x00, 0x00, 0x10, 0x18, 0x00, 0x00, 0x18,
   0x30, 0x00, 0x00, 0x08, 0xe0, 0xaa, 0xaa, 0x06, 0x00, 0xff, 0xff, 0x01,
   0x00, 0x00, 0x00, 0x00, 0x00, 0x00, 0x00, 0x00, 0x00, 0x00, 0x00, 0x00,
   0x00, 0x00, 0x00, 0x00, 0x00, 0x00, 0x00, 0x00, 0x00, 0x00, 0x00, 0x00,
   0x00, 0x00, 0x00, 0x00, 0x00, 0x00, 0x00, 0x00 };
