#define 10d_width 32
#define 10d_height 32
static unsigned char 10d_bits[] = {
   0x00, 0x00, 0x00, 0x00, 0x00, 0x00, 0x00, 0x00, 0x00, 0x00, 0x00, 0x00,
   0x00, 0x00, 0x00, 0x00, 0x00, 0x00, 0x00, 0x00, 0x00, 0x00, 0x00, 0x02,
   0x00, 0x00, 0xc0, 0x0f, 0x00, 0x00, 0xff, 0x1f, 0x00, 0x80, 0xe1, 0x1f,
   0x00, 0xc0, 0xc0, 0x3f, 0x00, 0x78, 0xc0, 0x3f, 0x00, 0x4c, 0x80, 0x1f,
   0xc0, 0x07, 0x80, 0x1f, 0x30, 0x00, 0x00, 0x1c, 0x10, 0x00, 0x00, 0x08,
   0x18, 0x00, 0x00, 0x10, 0x08, 0x00, 0x00, 0x10, 0x08, 0x00, 0x00, 0x10,
   0x18, 0x00, 0x00, 0x10, 0x10, 0x00, 0x00, 0x18, 0x60, 0xb4, 0x16, 0x0c,
   0xc0, 0xff, 0xff, 0x03, 0x00, 0x5a, 0x0b, 0x00, 0x00, 0x21, 0x04, 0x00,
   0x80, 0xbd, 0x07, 0x00, 0x80, 0xd6, 0x02, 0x00, 0x00, 0x10, 0x02, 0x00,
   0x00, 0xad, 0x01, 0x00, 0x80, 0xb5, 0x00, 0x00, 0x80, 0x95, 0x00, 0x00,
   0x00, 0x00, 0x00, 0x00, 0x00, 0x00, 0x00, 0x00 };
