#define 11n_width 32
#define 11n_height 32
static unsigned char 11n_bits[] = {
   0x00, 0x00, 0x00, 0x00, 0x00, 0x00, 0x00, 0x00, 0x00, 0x00, 0x00, 0x00,
   0x00, 0x00, 0x01, 0x00, 0x00, 0xc0, 0x0f, 0x00, 0x00, 0x60, 0x18, 0x00,
   0x00, 0x30, 0x30, 0x00, 0x00, 0x1e, 0x3f, 0x00, 0x80, 0x93, 0x61, 0x00,
   0xf0, 0x41, 0xc0, 0x01, 0x0c, 0x78, 0x40, 0x03, 0x04, 0x2c, 0xc0, 0x06,
   0xe4, 0x03, 0x80, 0x07, 0x36, 0x00, 0x00, 0x0c, 0x14, 0x00, 0x00, 0x08,
   0x0c, 0x00, 0x00, 0x18, 0x0c, 0x00, 0x00, 0x10, 0x08, 0x00, 0x00, 0x10,
   0x18, 0xc0, 0x01, 0x18, 0x10, 0xc0, 0x00, 0x08, 0x30, 0xe0, 0x00, 0x0e,
   0xe0, 0xff, 0xff, 0x03, 0x00, 0x60, 0x00, 0x00, 0x00, 0xe0, 0x03, 0x00,
   0x00, 0xb0, 0x03, 0x00, 0x00, 0x00, 0x01, 0x00, 0x00, 0x00, 0x01, 0x00,
   0x00, 0x00, 0x00, 0x00, 0x00, 0x00, 0x00, 0x00, 0x00, 0x00, 0x00, 0x00,
   0x00, 0x00, 0x00, 0x00, 0x00, 0x00, 0x00, 0x00 };
