#define 50n_width 32
#define 50n_height 32
static unsigned char 50n_bits[] = {
   0x00, 0x00, 0x00, 0x00, 0x00, 0x00, 0x00, 0x00, 0x00, 0x00, 0x00, 0x00,
   0x00, 0x00, 0x00, 0x00, 0x00, 0x00, 0x00, 0x00, 0x00, 0x00, 0x00, 0x00,
   0x00, 0x00, 0x00, 0x00, 0x00, 0x00, 0x00, 0x00, 0x00, 0x00, 0x00, 0x00,
   0x00, 0xf0, 0x07, 0x00, 0x00, 0x20, 0x01, 0x00, 0x00, 0x00, 0x00, 0x00,
   0xe0, 0xff, 0xf7, 0x01, 0x40, 0xdb, 0xa2, 0x00, 0x00, 0x00, 0x00, 0x00,
   0x00, 0xfe, 0xfc, 0x01, 0x00, 0xfe, 0xf4, 0x01, 0x00, 0x00, 0x00, 0x00,
   0xc0, 0xb6, 0xa5, 0x01, 0xe0, 0xff, 0xe7, 0x01, 0x00, 0x00, 0x00, 0x00,
   0x00, 0x48, 0x12, 0x00, 0x00, 0xff, 0x3f, 0x00, 0x00, 0x00, 0x00, 0x00,
   0x00, 0x00, 0x00, 0x00, 0x00, 0x00, 0x00, 0x00, 0x00, 0x00, 0x00, 0x00,
   0x00, 0x00, 0x00, 0x00, 0x00, 0x00, 0x00, 0x00, 0x00, 0x00, 0x00, 0x00,
   0x00, 0x00, 0x00, 0x00, 0x00, 0x00, 0x00, 0x00 };
