#define im_width 9
#define im_height 10
static char im_bits[] = {
0x00,0x00,0x00,0x00,0x00,0x00,0xdb,0x00,0xdb,0x00,0xff,0x00,0x7e,0x00,0x7e,
0x00,0x24,0x00,0x00,0x00
};
