#define im_width 16
#define im_height 32
static char im_bits[] = {
0x00,0x00,0x00,0x00,0x00,0x00,0x00,0x00,0xc0,0x0f,0xf0,0x1f,0xf8,0x3f,0xf8,
0x7c,0x3c,0x70,0x3c,0x70,0x1c,0xf0,0x3c,0x70,0x3c,0x70,0x78,0x78,0xf0,0x3f,
0xe0,0x1f,0xf0,0x3f,0xf8,0x7e,0x3c,0x70,0x1c,0xf0,0x1c,0xe0,0x1c,0xe0,0x1c,
0xf0,0x3c,0xf0,0x7c,0x7c,0xf8,0x7f,0xf0,0x3f,0xc0,0x0f,0x00,0x00,0x00,0x00,
0x00,0x00,0x00,0x00
};
