#define im_width 8
#define im_height 32
static char im_bits[] = {
0x00,0x00,0x00,0x00,0xf0,0xfc,0xfe,0xfe,0xf6,0xf2,0xf0,0xf0,0xf0,0xf0,0xf0,
0xf0,0xf0,0xf0,0xf0,0xf0,0xf0,0xf0,0xf0,0xf0,0xf0,0xf0,0xf0,0xf0,0x00,0x00,
0x00,0x00
};
