#define im_width 10
#define im_height 8
static char im_bits[] = {
0x00,0x00,0xce,0x01,0xcc,0x00,0x7c,0x00,0x78,0x00,0x38,0x00,0x30,0x00,0x00,
0x00
};
