<?xml version="1.0" encoding="UTF-8" standalone="no"?>
<svg
   xmlns:dc="http://purl.org/dc/elements/1.1/"
   xmlns:cc="http://creativecommons.org/ns#"
   xmlns:rdf="http://www.w3.org/1999/02/22-rdf-syntax-ns#"
   xmlns:svg="http://www.w3.org/2000/svg"
   xmlns="http://www.w3.org/2000/svg"
   xmlns:sodipodi="http://sodipodi.sourceforge.net/DTD/sodipodi-0.dtd"
   xmlns:inkscape="http://www.inkscape.org/namespaces/inkscape"
   sodipodi:docname="GUI 0.91'' OLED.svg"
   inkscape:version="1.0.1 (3bc2e813f5, 2020-09-07)"
   inkscape:export-ydpi="96"
   inkscape:export-xdpi="96"
   inkscape:export-filename="C:\Users\hjvanderpol\OneDrive\03 HenkJan\14 InternetOfThings\01 Gegevens componenten\02 Displays and display controllers\0.91 inch TFT 128x32 I2C Serial Blue OLED LCD SSD1306\bitmap.png"
   id="svg8"
   version="1.1"
   viewBox="0 0 33.866666 8.4666669"
   height="32"
   width="128">
  <defs
     id="defs2" />
  <sodipodi:namedview
     inkscape:window-maximized="1"
     inkscape:window-y="-11"
     inkscape:window-x="-11"
     inkscape:window-height="986"
     inkscape:window-width="1920"
     inkscape:snap-text-baseline="true"
     units="px"
     showgrid="true"
     inkscape:document-rotation="0"
     inkscape:current-layer="layer1"
     inkscape:document-units="px"
     inkscape:cy="129.3807"
     inkscape:cx="118.51706"
     inkscape:zoom="5.1252984"
     inkscape:pageshadow="2"
     inkscape:pageopacity="0"
     borderopacity="1.0"
     bordercolor="#666666"
     pagecolor="#4776c1"
     id="base">
    <inkscape:grid
       id="grid843"
       type="xygrid" />
    <inkscape:grid
       id="grid845"
       type="xygrid" />
  </sodipodi:namedview>
  <metadata
     id="metadata5">
    <rdf:RDF>
      <cc:Work
         rdf:about="">
        <dc:format>image/svg+xml</dc:format>
        <dc:type
           rdf:resource="http://purl.org/dc/dcmitype/StillImage" />
        <dc:title />
      </cc:Work>
    </rdf:RDF>
  </metadata>
  <g
     id="layer1"
     inkscape:groupmode="layer"
     inkscape:label="Layer 1">
    <rect
       inkscape:export-ydpi="96"
       inkscape:export-xdpi="96"
       y="9.260417"
       x="-1.110223e-16"
       height="8.4666672"
       width="33.866669"
       id="rect855"
       style="fill:#000000;stroke:none;stroke-width:0.0999998;stroke-linecap:round;stroke-linejoin:round;stop-color:#000000" />
    <text
       inkscape:export-ydpi="96"
       inkscape:export-xdpi="96"
       id="text835"
       y="17.696558"
       x="16.876564"
       style="font-style:normal;font-variant:normal;font-weight:normal;font-stretch:condensed;font-size:2.50037px;line-height:1.25;font-family:Arial;-inkscape-font-specification:'Arial Condensed';text-align:center;letter-spacing:0px;word-spacing:0px;text-anchor:middle;fill:#ffffff;fill-opacity:1;stroke:none;stroke-width:0.264583"
       xml:space="preserve"><tspan
         style="font-style:normal;font-variant:normal;font-weight:normal;font-stretch:condensed;font-family:Arial;-inkscape-font-specification:'Arial Condensed';text-align:center;text-anchor:middle;fill:#ffffff;stroke-width:0.264583"
         y="17.696558"
         x="16.876566"
         id="tspan833"
         sodipodi:role="line">SINGLE=SELECT DOUBLE=NEXT</tspan></text>
    <text
       inkscape:export-ydpi="96"
       inkscape:export-xdpi="96"
       xml:space="preserve"
       style="font-style:normal;font-variant:normal;font-weight:normal;font-stretch:condensed;font-size:7.50112px;line-height:1.25;font-family:Arial;-inkscape-font-specification:'Arial Condensed';text-align:center;letter-spacing:0px;word-spacing:0px;text-anchor:middle;fill:#ffffff;fill-opacity:1;stroke:none;stroke-width:0.264583"
       x="16.828949"
       y="14.725102"
       id="text853"><tspan
         sodipodi:role="line"
         id="tspan851"
         x="16.828949"
         y="14.725102"
         style="font-style:normal;font-variant:normal;font-weight:normal;font-stretch:condensed;font-family:Arial;-inkscape-font-specification:'Arial Condensed';text-align:center;text-anchor:middle;fill:#ffffff;stroke-width:0.264583">TIMER</tspan></text>
    <rect
       inkscape:export-ydpi="96"
       inkscape:export-xdpi="96"
       style="fill:#000000;stroke:none;stroke-width:0.0999998;stroke-linecap:round;stroke-linejoin:round;stop-color:#000000"
       id="rect857"
       width="33.866669"
       height="8.4666672"
       x="0"
       y="-9.260417" />
    <text
       inkscape:export-ydpi="96"
       inkscape:export-xdpi="96"
       id="text865"
       y="-1.7438654"
       x="16.717632"
       style="font-style:normal;font-variant:normal;font-weight:normal;font-stretch:condensed;font-size:9.30018px;line-height:1.25;font-family:Arial;-inkscape-font-specification:'Arial Condensed';text-align:center;letter-spacing:0px;word-spacing:0px;text-anchor:middle;fill:#ffffff;fill-opacity:1;stroke:none;stroke-width:0.264583"
       xml:space="preserve"><tspan
         style="font-style:normal;font-variant:normal;font-weight:normal;font-stretch:condensed;font-family:Arial;-inkscape-font-specification:'Arial Condensed';text-align:center;text-anchor:middle;fill:#ffffff;stroke-width:0.264583"
         y="-1.7438654"
         x="16.717632"
         id="tspan863"
         sodipodi:role="line">12:34</tspan></text>
    <text
       id="text869"
       y="-6.614583"
       x="35.71875"
       style="font-style:normal;font-weight:normal;font-size:3.88056px;line-height:1.25;font-family:sans-serif;letter-spacing:0px;word-spacing:0px;fill:#000000;fill-opacity:1;stroke:none;stroke-width:0.264583"
       xml:space="preserve"><tspan
         style="stroke-width:0.264583"
         y="-6.614583"
         x="35.71875"
         id="tspan867"
         sodipodi:role="line">SINGLE</tspan><tspan
         id="tspan871"
         style="stroke-width:0.264583"
         y="-1.7638831"
         x="35.71875"
         sodipodi:role="line">DOUBLE</tspan></text>
    <rect
       inkscape:export-ydpi="96"
       inkscape:export-xdpi="96"
       style="fill:#000000;stroke:none;stroke-width:0.0999998;stroke-linecap:round;stroke-linejoin:round;stop-color:#000000"
       id="rect873"
       width="33.866669"
       height="8.4666672"
       x="-1.110223e-16"
       y="18.520834" />
    <text
       inkscape:export-ydpi="96"
       inkscape:export-xdpi="96"
       xml:space="preserve"
       style="font-style:normal;font-variant:normal;font-weight:normal;font-stretch:condensed;font-size:2.50037px;line-height:1.25;font-family:Arial;-inkscape-font-specification:'Arial Condensed';text-align:center;letter-spacing:0px;word-spacing:0px;text-anchor:middle;fill:#ffffff;fill-opacity:1;stroke:none;stroke-width:0.264583"
       x="16.876564"
       y="26.956974"
       id="text877"><tspan
         sodipodi:role="line"
         id="tspan875"
         x="16.876566"
         y="26.956974"
         style="font-style:normal;font-variant:normal;font-weight:normal;font-stretch:condensed;font-family:Arial;-inkscape-font-specification:'Arial Condensed';text-align:center;text-anchor:middle;fill:#ffffff;stroke-width:0.264583">SINGLE=SELECT DOUBLE=NEXT</tspan></text>
    <text
       inkscape:export-ydpi="96"
       inkscape:export-xdpi="96"
       id="text881"
       y="23.985519"
       x="16.828949"
       style="font-style:normal;font-variant:normal;font-weight:normal;font-stretch:condensed;font-size:7.50112px;line-height:1.25;font-family:Arial;-inkscape-font-specification:'Arial Condensed';text-align:center;letter-spacing:0px;word-spacing:0px;text-anchor:middle;fill:#ffffff;fill-opacity:1;stroke:none;stroke-width:0.264583"
       xml:space="preserve"><tspan
         style="font-style:normal;font-variant:normal;font-weight:normal;font-stretch:condensed;font-family:Arial;-inkscape-font-specification:'Arial Condensed';text-align:center;text-anchor:middle;fill:#ffffff;stroke-width:0.264583"
         y="23.985519"
         x="16.828949"
         id="tspan879"
         sodipodi:role="line">COLOR</tspan></text>
    <rect
       inkscape:export-ydpi="96"
       inkscape:export-xdpi="96"
       style="fill:#000000;stroke:none;stroke-width:0.0999998;stroke-linecap:round;stroke-linejoin:round;stop-color:#000000"
       id="rect883"
       width="33.866669"
       height="8.4666672"
       x="0"
       y="0" />
    <text
       inkscape:export-ydpi="96"
       inkscape:export-xdpi="96"
       xml:space="preserve"
       style="font-style:normal;font-variant:normal;font-weight:normal;font-stretch:condensed;font-size:2.50037px;line-height:1.25;font-family:Arial;-inkscape-font-specification:'Arial Condensed';text-align:center;letter-spacing:0px;word-spacing:0px;text-anchor:middle;fill:#ffffff;fill-opacity:1;stroke:none;stroke-width:0.264583"
       x="16.876564"
       y="8.436141"
       id="text887"><tspan
         sodipodi:role="line"
         id="tspan885"
         x="16.876566"
         y="8.436141"
         style="font-style:normal;font-variant:normal;font-weight:normal;font-stretch:condensed;font-family:Arial;-inkscape-font-specification:'Arial Condensed';text-align:center;text-anchor:middle;fill:#ffffff;stroke-width:0.264583">SINGLE=SELECT DOUBLE=NEXT</tspan></text>
    <text
       inkscape:export-ydpi="96"
       inkscape:export-xdpi="96"
       id="text891"
       y="5.4646854"
       x="16.828949"
       style="font-style:normal;font-variant:normal;font-weight:normal;font-stretch:condensed;font-size:7.50112px;line-height:1.25;font-family:Arial;-inkscape-font-specification:'Arial Condensed';text-align:center;letter-spacing:0px;word-spacing:0px;text-anchor:middle;fill:#ffffff;fill-opacity:1;stroke:none;stroke-width:0.264583"
       xml:space="preserve"><tspan
         style="font-style:normal;font-variant:normal;font-weight:normal;font-stretch:condensed;font-family:Arial;-inkscape-font-specification:'Arial Condensed';text-align:center;text-anchor:middle;fill:#ffffff;stroke-width:0.264583"
         y="5.4646854"
         x="16.828949"
         id="tspan889"
         sodipodi:role="line">INTENSITY</tspan></text>
    <rect
       inkscape:export-ydpi="96"
       inkscape:export-xdpi="96"
       style="fill:#000000;stroke:none;stroke-width:0.0999998;stroke-linecap:round;stroke-linejoin:round;stop-color:#000000"
       id="rect30"
       width="33.866669"
       height="8.4666672"
       x="35.71875"
       y="18.520834" />
    <rect
       style="opacity:0.994;fill:#ffffff;stroke:#ffffff;stroke-width:0.264583;stroke-miterlimit:4;stroke-dasharray:none;stop-color:#000000"
       id="rect40"
       width="10.715625"
       height="3.7041667"
       x="38.496876"
       y="18.653126" />
    <path
       style="fill:#ffffff;stroke:none;stroke-width:0.264583px;stroke-linecap:butt;stroke-linejoin:miter;stroke-opacity:1"
       d="m 37.835417,20.505208 -2.116667,1.984375 10e-7,-3.96875 z"
       id="path865"
       sodipodi:nodetypes="cccc" />
    <text
       inkscape:export-ydpi="96"
       inkscape:export-xdpi="96"
       xml:space="preserve"
       style="font-style:normal;font-variant:normal;font-weight:normal;font-stretch:condensed;font-size:3.26141px;line-height:1.25;font-family:Arial;-inkscape-font-specification:'Arial Condensed';text-align:center;letter-spacing:0px;word-spacing:0px;text-anchor:middle;fill:#000000;fill-opacity:1;stroke:none;stroke-width:0.264583"
       x="43.965534"
       y="21.698992"
       id="text870"><tspan
         sodipodi:role="line"
         id="tspan868"
         x="43.965534"
         y="21.698992"
         style="font-style:normal;font-variant:normal;font-weight:normal;font-stretch:condensed;font-family:Arial;-inkscape-font-specification:'Arial Condensed';text-align:center;text-anchor:middle;fill:#000000;stroke-width:0.264583">TIMER</tspan></text>
    <rect
       style="opacity:0.994;fill:#ffffff;stroke:#ffffff;stroke-width:0.264583;stroke-miterlimit:4;stroke-dasharray:none;stop-color:#000000"
       id="rect876"
       width="7.6729169"
       height="3.7041667"
       x="38.496876"
       y="23.151041" />
    <text
       inkscape:export-ydpi="96"
       inkscape:export-xdpi="96"
       xml:space="preserve"
       style="font-style:normal;font-variant:normal;font-weight:normal;font-stretch:condensed;font-size:3.26141px;line-height:1.25;font-family:Arial;-inkscape-font-specification:'Arial Condensed';text-align:center;letter-spacing:0px;word-spacing:0px;text-anchor:middle;fill:#000000;fill-opacity:1;stroke:none;stroke-width:0.264583"
       x="42.378033"
       y="26.196907"
       id="text880"><tspan
         sodipodi:role="line"
         id="tspan878"
         x="42.378033"
         y="26.196907"
         style="font-style:normal;font-variant:normal;font-weight:normal;font-stretch:condensed;font-family:Arial;-inkscape-font-specification:'Arial Condensed';text-align:center;text-anchor:middle;fill:#000000;stroke-width:0.264583">5 MIN</tspan></text>
    <text
       inkscape:export-ydpi="96"
       inkscape:export-xdpi="96"
       xml:space="preserve"
       style="font-style:normal;font-variant:normal;font-weight:normal;font-stretch:condensed;font-size:3.26141px;line-height:1.25;font-family:Arial;-inkscape-font-specification:'Arial Condensed';text-align:center;letter-spacing:0px;word-spacing:0px;text-anchor:middle;fill:#ffffff;fill-opacity:1;stroke:none;stroke-width:0.264583"
       x="59.311371"
       y="21.698992"
       id="text884"><tspan
         sodipodi:role="line"
         id="tspan882"
         x="59.311371"
         y="21.698992"
         style="font-style:normal;font-variant:normal;font-weight:normal;font-stretch:condensed;font-family:Arial;-inkscape-font-specification:'Arial Condensed';text-align:center;text-anchor:middle;fill:#ffffff;stroke-width:0.264583">BRIGHTNESS</tspan></text>
    <text
       inkscape:export-ydpi="96"
       inkscape:export-xdpi="96"
       xml:space="preserve"
       style="font-style:normal;font-variant:normal;font-weight:normal;font-stretch:condensed;font-size:3.26141px;line-height:1.25;font-family:Arial;-inkscape-font-specification:'Arial Condensed';text-align:center;letter-spacing:0px;word-spacing:0px;text-anchor:middle;fill:#ffffff;fill-opacity:1;stroke:none;stroke-width:0.264583"
       x="73.598854"
       y="21.698992"
       id="text888"><tspan
         sodipodi:role="line"
         id="tspan886"
         x="73.598854"
         y="21.698992"
         style="font-style:normal;font-variant:normal;font-weight:normal;font-stretch:condensed;font-family:Arial;-inkscape-font-specification:'Arial Condensed';text-align:center;text-anchor:middle;fill:#ffffff;stroke-width:0.264583">COLOR</tspan></text>
    <text
       inkscape:export-ydpi="96"
       inkscape:export-xdpi="96"
       xml:space="preserve"
       style="font-style:normal;font-variant:normal;font-weight:normal;font-stretch:condensed;font-size:3.26141px;line-height:1.25;font-family:Arial;-inkscape-font-specification:'Arial Condensed';text-align:center;letter-spacing:0px;word-spacing:0px;text-anchor:middle;fill:#ffffff;fill-opacity:1;stroke:none;stroke-width:0.264583"
       x="51.903038"
       y="26.196907"
       id="text892"><tspan
         sodipodi:role="line"
         id="tspan890"
         x="51.903038"
         y="26.196907"
         style="font-style:normal;font-variant:normal;font-weight:normal;font-stretch:condensed;font-family:Arial;-inkscape-font-specification:'Arial Condensed';text-align:center;text-anchor:middle;fill:#ffffff;stroke-width:0.264583">10 MIN</tspan></text>
    <text
       inkscape:export-ydpi="96"
       inkscape:export-xdpi="96"
       xml:space="preserve"
       style="font-style:normal;font-variant:normal;font-weight:normal;font-stretch:condensed;font-size:3.26141px;line-height:1.25;font-family:Arial;-inkscape-font-specification:'Arial Condensed';text-align:center;letter-spacing:0px;word-spacing:0px;text-anchor:middle;fill:#ffffff;fill-opacity:1;stroke:none;stroke-width:0.264583"
       x="61.957207"
       y="26.196907"
       id="text896"><tspan
         sodipodi:role="line"
         id="tspan894"
         x="61.957207"
         y="26.196907"
         style="font-style:normal;font-variant:normal;font-weight:normal;font-stretch:condensed;font-family:Arial;-inkscape-font-specification:'Arial Condensed';text-align:center;text-anchor:middle;fill:#ffffff;stroke-width:0.264583">20 MIN</tspan></text>
    <path
       style="fill:#ffffff;stroke:none;stroke-width:0.264583px;stroke-linecap:butt;stroke-linejoin:miter;stroke-opacity:1"
       d="m 67.46875,25.003125 2.116667,1.984375 -1e-6,-3.96875 z"
       id="path898"
       sodipodi:nodetypes="cccc" />
    <rect
       inkscape:export-ydpi="96"
       inkscape:export-xdpi="96"
       style="fill:#000000;stroke:none;stroke-width:0.0999998;stroke-linecap:round;stroke-linejoin:round;stop-color:#000000"
       id="rect173"
       width="33.866669"
       height="8.4666672"
       x="35.71875"
       y="33.072914" />
    <rect
       style="opacity:0.994;fill:#ffffff;stroke:#ffffff;stroke-width:0.264583;stroke-miterlimit:4;stroke-dasharray:none;stop-color:#000000"
       id="rect175"
       width="10.715625"
       height="3.7041667"
       x="38.496876"
       y="33.205208" />
    <path
       style="fill:#ffffff;stroke:none;stroke-width:0.264583px;stroke-linecap:butt;stroke-linejoin:miter;stroke-opacity:1"
       d="m 37.835416,35.057292 -2.116667,1.984375 10e-7,-3.96875 z"
       id="path177"
       sodipodi:nodetypes="cccc" />
    <text
       inkscape:export-ydpi="96"
       inkscape:export-xdpi="96"
       xml:space="preserve"
       style="font-style:normal;font-variant:normal;font-weight:normal;font-stretch:condensed;font-size:3.26141px;line-height:1.25;font-family:Arial;-inkscape-font-specification:'Arial Condensed';text-align:center;letter-spacing:0px;word-spacing:0px;text-anchor:middle;fill:#000000;fill-opacity:1;stroke:none;stroke-width:0.264583"
       x="43.965534"
       y="36.251076"
       id="text181"><tspan
         sodipodi:role="line"
         id="tspan179"
         x="43.965534"
         y="36.251076"
         style="font-style:normal;font-variant:normal;font-weight:normal;font-stretch:condensed;font-family:Arial;-inkscape-font-specification:'Arial Condensed';text-align:center;text-anchor:middle;fill:#000000;stroke-width:0.264583">TIMER</tspan></text>
    <rect
       style="opacity:0.994;fill:#ffffff;stroke:#ffffff;stroke-width:0.264583;stroke-miterlimit:4;stroke-dasharray:none;stop-color:#000000"
       id="rect183"
       width="7.6729169"
       height="3.7041667"
       x="61.780209"
       y="33.205208" />
    <text
       inkscape:export-ydpi="96"
       inkscape:export-xdpi="96"
       xml:space="preserve"
       style="font-style:normal;font-variant:normal;font-weight:normal;font-stretch:condensed;font-size:3.26141px;line-height:1.25;font-family:Arial;-inkscape-font-specification:'Arial Condensed';text-align:center;letter-spacing:0px;word-spacing:0px;text-anchor:middle;fill:#000000;fill-opacity:1;stroke:none;stroke-width:0.264583"
       x="65.661369"
       y="36.251072"
       id="text187"><tspan
         sodipodi:role="line"
         id="tspan185"
         x="65.661369"
         y="36.251072"
         style="font-style:normal;font-variant:normal;font-weight:normal;font-stretch:condensed;font-family:Arial;-inkscape-font-specification:'Arial Condensed';text-align:center;text-anchor:middle;fill:#000000;stroke-width:0.264583">5 MIN</tspan></text>
    <text
       inkscape:export-ydpi="96"
       inkscape:export-xdpi="96"
       xml:space="preserve"
       style="font-style:normal;font-variant:normal;font-weight:normal;font-stretch:condensed;font-size:3.26141px;line-height:1.25;font-family:Arial;-inkscape-font-specification:'Arial Condensed';text-align:center;letter-spacing:0px;word-spacing:0px;text-anchor:middle;fill:#ffffff;fill-opacity:1;stroke:none;stroke-width:0.264583"
       x="48.154167"
       y="39.6875"
       id="text191"><tspan
         sodipodi:role="line"
         id="tspan189"
         x="48.154167"
         y="39.6875"
         style="font-style:normal;font-variant:normal;font-weight:normal;font-stretch:condensed;font-family:Arial;-inkscape-font-specification:'Arial Condensed';text-align:center;text-anchor:middle;fill:#ffffff;stroke-width:0.264583">BRIGHTNESS</tspan></text>
    <text
       inkscape:export-ydpi="96"
       inkscape:export-xdpi="96"
       xml:space="preserve"
       style="font-style:normal;font-variant:normal;font-weight:normal;font-stretch:condensed;font-size:3.26141px;line-height:1.25;font-family:Arial;-inkscape-font-specification:'Arial Condensed';text-align:center;letter-spacing:0px;word-spacing:0px;text-anchor:middle;fill:#ffffff;fill-opacity:1;stroke:none;stroke-width:0.264583"
       x="73.598854"
       y="36.251076"
       id="text195"><tspan
         sodipodi:role="line"
         id="tspan193"
         x="73.598854"
         y="36.251076"
         style="font-style:normal;font-variant:normal;font-weight:normal;font-stretch:condensed;font-family:Arial;-inkscape-font-specification:'Arial Condensed';text-align:center;text-anchor:middle;fill:#ffffff;stroke-width:0.264583">COLOR</tspan></text>
    <text
       inkscape:export-ydpi="96"
       inkscape:export-xdpi="96"
       xml:space="preserve"
       style="font-style:normal;font-variant:normal;font-weight:normal;font-stretch:condensed;font-size:3.26141px;line-height:1.25;font-family:Arial;-inkscape-font-specification:'Arial Condensed';text-align:center;letter-spacing:0px;word-spacing:0px;text-anchor:middle;fill:#ffffff;fill-opacity:1;stroke:none;stroke-width:0.264583"
       x="51.903038"
       y="40.748989"
       id="text199"><tspan
         sodipodi:role="line"
         id="tspan197"
         x="51.903038"
         y="40.748989"
         style="font-style:normal;font-variant:normal;font-weight:normal;font-stretch:condensed;font-family:Arial;-inkscape-font-specification:'Arial Condensed';text-align:center;text-anchor:middle;fill:#ffffff;stroke-width:0.264583">10 MIN</tspan></text>
    <text
       inkscape:export-ydpi="96"
       inkscape:export-xdpi="96"
       xml:space="preserve"
       style="font-style:normal;font-variant:normal;font-weight:normal;font-stretch:condensed;font-size:3.26141px;line-height:1.25;font-family:Arial;-inkscape-font-specification:'Arial Condensed';text-align:center;letter-spacing:0px;word-spacing:0px;text-anchor:middle;fill:#ffffff;fill-opacity:1;stroke:none;stroke-width:0.264583"
       x="61.957207"
       y="40.748989"
       id="text203"><tspan
         sodipodi:role="line"
         id="tspan201"
         x="61.957207"
         y="40.748989"
         style="font-style:normal;font-variant:normal;font-weight:normal;font-stretch:condensed;font-family:Arial;-inkscape-font-specification:'Arial Condensed';text-align:center;text-anchor:middle;fill:#ffffff;stroke-width:0.264583">20 MIN</tspan></text>
    <path
       style="fill:#ffffff;stroke:none;stroke-width:0.264583px;stroke-linecap:butt;stroke-linejoin:miter;stroke-opacity:1"
       d="m 67.468749,39.555209 2.116667,1.984375 -10e-7,-3.96875 z"
       id="path205"
       sodipodi:nodetypes="cccc" />
    <rect
       style="fill:#2b2b2b;stroke:none;stroke-width:1;stop-color:#000000"
       id="rect207"
       width="8.4667768"
       height="8.4667768"
       x="36.380207"
       y="43.65625"
       inkscape:export-xdpi="96"
       inkscape:export-ydpi="96" />
    <path
       style="fill:#2b2b2b;stroke:#ffffff;stroke-width:0.264583px;stroke-linecap:butt;stroke-linejoin:miter;stroke-opacity:1"
       d="m 43.854786,44.185425 -2.689966,3.439627 2.689966,3.968802 h -6.482377 l 2.689966,-3.968802 -2.689966,-3.439627 z"
       id="path211"
       sodipodi:nodetypes="ccccccc" />
    <path
       style="fill:#ffffff;stroke:none;stroke-width:0.264583px;stroke-linecap:butt;stroke-linejoin:miter;stroke-opacity:1"
       d="m 38.364609,51.593854 2.248988,-2.116694 2.248988,2.116694"
       id="path213"
       sodipodi:nodetypes="ccc" />
    <path
       id="path215"
       style="fill:#ffffff;stroke:none;stroke-width:0.264583px;stroke-linecap:butt;stroke-linejoin:miter;stroke-opacity:1"
       d="m 38.14834,45.040165 2.01644,2.57817 5.19e-4,5.16e-4 h 1.112089 l 5.19e-4,-5.16e-4 1.800946,-2.302733 -2.291363,0.186555 z" />
    <ellipse
       style="fill:#ffffff;stroke:none;stroke-width:1;stop-color:#000000"
       id="path223"
       cx="40.613598"
       cy="48.551105"
       rx="0.13229337"
       ry="0.39688015" />
    <rect
       style="fill:#2b2b2b;stroke:none;stroke-width:1;stop-color:#000000"
       id="rect225"
       width="8.4667768"
       height="8.4667768"
       x="44.979282"
       y="43.65625"
       inkscape:export-xdpi="96"
       inkscape:export-ydpi="96" />
    <path
       style="font-variation-settings:normal;opacity:1;vector-effect:none;fill:#ffffff;fill-opacity:1;stroke:none;stroke-width:0.264583px;stroke-linecap:butt;stroke-linejoin:miter;stroke-miterlimit:4;stroke-dasharray:none;stroke-dashoffset:0;stroke-opacity:1;stop-color:#000000;stop-opacity:1"
       d="m 45.508454,48.947988 h 7.143843 V 46.30212 Z"
       id="path229"
       sodipodi:nodetypes="cccc" />
    <rect
       style="fill:#2b2b2b;stroke:none;stroke-width:1;stop-color:#000000"
       id="rect254"
       width="8.4667768"
       height="8.4667768"
       x="53.710644"
       y="43.65625"
       inkscape:export-xdpi="96"
       inkscape:export-ydpi="96" />
    <path
       style="fill:#ffffff;stroke-width:1"
       d="m 59.046131,52.114325 c -0.999366,-0.05929 -2.027302,-0.407314 -2.8956,-0.980438 -0.787606,-0.519857 -1.390744,-1.17792 -1.841093,-2.008774 -0.603707,-1.113786 -0.760456,-2.354822 -0.426557,-3.37723 0.151949,-0.465249 0.383718,-0.855707 0.703107,-1.1845 0.577648,-0.594638 1.275476,-0.880201 2.212812,-0.905494 1.050466,-0.02839 2.229791,0.326172 3.202447,0.962711 0.126961,0.08308 0.32845,0.224937 0.32845,0.231235 0,0.002 -0.069,0.06288 -0.153419,0.135458 -0.0844,0.07258 -0.3518,0.305268 -0.594249,0.516998 -0.674118,0.58868 -0.905807,0.782205 -1.210096,1.010751 -0.345417,0.259428 -0.539758,0.372581 -0.704127,0.409952 -0.241788,0.05499 -0.528308,0.345669 -0.820877,0.832813 -0.167159,0.278334 -0.257588,0.470508 -0.346488,0.736296 -0.207059,0.619043 -0.259178,1.198196 -0.11953,1.328065 0.0682,0.06338 0.12466,0.04699 0.530418,-0.154713 0.281769,-0.140067 0.349319,-0.16802 0.509359,-0.210751 0.934176,-0.24946 1.566254,-0.745523 1.837643,-1.442208 0.02041,-0.05229 0.0469,-0.108424 0.0589,-0.12475 0.06239,-0.08488 0.384658,-0.395376 0.844096,-0.813268 0.24126,-0.219438 1.230336,-1.101179 1.258086,-1.121553 0.0143,-0.0105 0.02179,-0.003 0.0822,0.07778 0.168979,0.226816 0.336238,0.500931 0.474119,0.777026 0.100599,0.201452 0.114299,0.248941 0.105949,0.367252 -0.009,0.125891 -0.0693,0.274366 -0.182679,0.448654 -0.0851,0.130919 -0.201658,0.275875 -0.472819,0.588211 -0.342968,0.395056 -0.491387,0.610855 -0.558247,0.811718 -0.0206,0.06198 -0.023,0.08208 -0.0232,0.194434 -3e-4,0.233384 0.0527,0.433727 0.297278,1.123334 0.075,0.211539 0.15226,0.435176 0.17164,0.496962 0.12647,0.403174 0.144339,0.6302 0.0585,0.742764 -0.02159,0.02819 -0.184779,0.12292 -0.320719,0.186026 -0.578358,0.268496 -1.275534,0.388527 -2.005303,0.345248 z m 0.594828,-0.677739 c 0.22567,-0.03939 0.437028,-0.16958 0.556378,-0.34282 0.0556,-0.08068 0.0728,-0.115292 0.10269,-0.20595 0.0218,-0.06628 0.02419,-0.08568 0.0248,-0.198754 6.9e-4,-0.146295 -0.01,-0.196033 -0.0674,-0.315415 -0.19664,-0.408893 -0.732468,-0.578682 -1.171255,-0.371142 -0.222589,0.105286 -0.385099,0.29783 -0.439119,0.520287 -0.0174,0.07158 -0.0193,0.228426 -0.004,0.300209 0.058,0.266286 0.252857,0.476537 0.535947,0.578212 0.1311,0.04709 0.314079,0.06108 0.461648,0.03539 z M 55.303465,47.40656 c 0.303789,-0.07608 0.537268,-0.296579 0.609738,-0.575953 0.0248,-0.09548 0.0248,-0.241543 0,-0.33702 -0.0336,-0.1297 -0.0927,-0.234125 -0.189999,-0.335831 -0.10585,-0.110664 -0.249169,-0.192924 -0.411098,-0.235944 -0.0769,-0.0204 -0.102121,-0.02299 -0.229049,-0.02299 -0.12615,0 -0.15231,0.003 -0.226519,0.02239 -0.31492,0.08408 -0.548509,0.313596 -0.606909,0.596279 -0.0681,0.329762 0.103219,0.659323 0.425468,0.818326 0.0792,0.03909 0.162009,0.06698 0.246609,0.08308 0.0883,0.01679 0.29137,0.0102 0.381759,-0.0124 z m 2.378411,-1.712914 c 0.389298,-0.04339 0.692198,-0.312996 0.746938,-0.664802 0.0597,-0.383929 -0.230059,-0.76001 -0.653288,-0.847799 -0.105279,-0.02179 -0.275039,-0.02179 -0.380318,0 -0.315769,0.06548 -0.559589,0.286241 -0.640559,0.579932 -0.0234,0.08498 -0.0219,0.259658 0.003,0.346988 0.0372,0.130059 0.0875,0.219217 0.17902,0.316975 0.140438,0.150104 0.329509,0.243622 0.542667,0.268406 0.0906,0.0105 0.11034,0.0106 0.202419,3e-4 z M 56.8734,49.258362 c -0.0671,-0.08528 -0.0322,-0.388809 0.103349,-0.898198 0.0345,-0.129759 0.0544,-0.185946 0.0947,-0.267897 0.195101,-0.396476 0.595279,-0.66972 0.980867,-0.66972 h 0.0804 l 0.0331,-0.04539 c 0.0573,-0.07838 0.197449,-0.242102 0.250739,-0.292741 0.0879,-0.08358 0.178869,-0.114462 0.283819,-0.09648 0.0776,0.0133 0.120109,0.03609 0.208769,0.111773 0.163399,0.139538 0.236879,0.21217 0.259879,0.25689 0.0465,0.09038 0.0242,0.215639 -0.0513,0.287822 -0.0373,0.03569 -0.198139,0.149344 -0.302248,0.213579 l -0.0825,0.05089 -0.005,0.07498 c -0.0289,0.406654 -0.448058,0.732017 -1.208515,0.937998 -0.158379,0.04289 -0.197398,0.06498 -0.404929,0.228826 -0.176698,0.139527 -0.205629,0.152454 -0.240888,0.107645 z m 2.47495,-2.050385 c -0.0239,-0.009 -0.0526,-0.02099 -0.0637,-0.02699 -0.0217,-0.0116 -0.340838,-0.289761 -0.387638,-0.33784 -0.0876,-0.08998 -0.0951,-0.245822 -0.0167,-0.344368 0.0669,-0.08408 0.826077,-0.723909 1.263685,-1.065088 0.743428,-0.579613 1.363205,-0.987117 1.703364,-1.119965 0.0996,-0.03889 0.20553,-0.05849 0.250539,-0.04639 0.194709,0.05249 0.0304,0.390248 -0.479648,0.986156 -0.422348,0.493433 -1.082706,1.149707 -1.768243,1.757324 -0.214489,0.190105 -0.24456,0.207181 -0.371169,0.2108 -0.0682,0.002 -0.0963,-10e-4 -0.13046,-0.0137 z"
       id="path284" />
    <rect
       style="fill:#000000;stroke:none;stroke-width:1;stop-color:#000000"
       id="rect286"
       width="4.2333336"
       height="4.2333336"
       x="36.380207"
       y="54.239586"
       inkscape:export-xdpi="96"
       inkscape:export-ydpi="96"
       inkscape:export-filename="C:\Users\hjvanderpol\OneDrive\03 HenkJan\14 InternetOfThings\03 ESP Projects\13 Nachtlampje\02 User interface\Icons\Hourglass.png" />
    <path
       id="path306"
       style="color:#000000;font-style:normal;font-variant:normal;font-weight:normal;font-stretch:normal;font-size:medium;line-height:normal;font-family:sans-serif;font-variant-ligatures:normal;font-variant-position:normal;font-variant-caps:normal;font-variant-numeric:normal;font-variant-alternates:normal;font-variant-east-asian:normal;font-feature-settings:normal;font-variation-settings:normal;text-indent:0;text-align:start;text-decoration:none;text-decoration-line:none;text-decoration-style:solid;text-decoration-color:#000000;letter-spacing:normal;word-spacing:normal;text-transform:none;writing-mode:lr-tb;direction:ltr;text-orientation:mixed;dominant-baseline:auto;baseline-shift:baseline;text-anchor:start;white-space:normal;shape-padding:0;shape-margin:0;inline-size:0;clip-rule:nonzero;display:inline;overflow:visible;visibility:visible;opacity:1;isolation:auto;mix-blend-mode:normal;color-interpolation:sRGB;color-interpolation-filters:linearRGB;solid-color:#000000;solid-opacity:1;vector-effect:none;fill:#ffffff;fill-opacity:1;fill-rule:nonzero;stroke:none;stroke-width:0.264583px;stroke-linecap:butt;stroke-linejoin:miter;stroke-miterlimit:4;stroke-dasharray:none;stroke-dashoffset:0;stroke-opacity:1;color-rendering:auto;image-rendering:auto;shape-rendering:auto;text-rendering:auto;enable-background:accumulate;stop-color:#000000;stop-opacity:1"
       d="m 36.983581,54.768753 1.162513,1.487869 -1.145563,1.687131 h 2.992273 l -1.145151,-1.687131 1.162514,-1.487869 h -0.217454 z m 0.434496,0.212907 h 2.157595 l -0.282361,0.361321 -0.727192,0.05912 -0.949191,-0.166192 z m 0.987639,1.267107 h 0.182315 l 1.005004,1.484147 h -0.309232 l -0.787136,-0.740833 -0.787135,0.740833 h -0.308818 z m 0.09095,0.214147 a 0.05291667,0.15875 0 0 0 -0.05292,0.15875 0.05291667,0.15875 0 0 0 0.05292,0.15875 0.05291667,0.15875 0 0 0 0.05292,-0.15875 0.05291667,0.15875 0 0 0 -0.05292,-0.15875 z" />
    <rect
       style="fill:#000000;stroke:none;stroke-width:1;stop-color:#000000"
       id="rect296"
       width="4.2333336"
       height="4.2333336"
       x="40.679688"
       y="54.239586"
       inkscape:export-xdpi="96"
       inkscape:export-ydpi="96"
       inkscape:export-filename="C:\Users\hjvanderpol\OneDrive\03 HenkJan\14 InternetOfThings\03 ESP Projects\13 Nachtlampje\02 User interface\Icons\Brightness.png" />
    <path
       style="font-variation-settings:normal;opacity:1;vector-effect:none;fill:#ffffff;fill-opacity:1;stroke:none;stroke-width:0.264583px;stroke-linecap:butt;stroke-linejoin:miter;stroke-miterlimit:4;stroke-dasharray:none;stroke-dashoffset:0;stroke-opacity:1;stop-color:#000000;stop-opacity:1"
       d="m 41.208854,56.944216 h 3.175 V 55.76829 Z"
       id="path298"
       sodipodi:nodetypes="cccc" />
    <rect
       style="fill:#000000;stroke:none;stroke-width:1;stop-color:#000000"
       id="rect300"
       width="4.2333336"
       height="4.2333336"
       x="45.045311"
       y="54.239586"
       inkscape:export-xdpi="96"
       inkscape:export-ydpi="96"
       inkscape:export-filename="C:\Users\hjvanderpol\OneDrive\03 HenkJan\14 InternetOfThings\03 ESP Projects\13 Nachtlampje\02 User interface\Icons\Color.png" />
    <path
       style="fill:#ffffff;stroke-width:1"
       d="m 47.575293,57.940525 c -0.374767,-0.02223 -0.760248,-0.152744 -1.085863,-0.367669 -0.295356,-0.194949 -0.521536,-0.441725 -0.690419,-0.753299 -0.226393,-0.417675 -0.285174,-0.883069 -0.159961,-1.266477 0.05698,-0.174471 0.143896,-0.320895 0.263668,-0.444193 0.216621,-0.222992 0.47831,-0.33008 0.829816,-0.339565 0.393929,-0.01065 0.836182,0.122316 1.200932,0.361021 0.04761,0.03116 0.12317,0.08435 0.12317,0.08671 0,7.5e-4 -0.02588,0.02358 -0.05753,0.0508 -0.03165,0.02722 -0.131927,0.114477 -0.222846,0.193877 -0.252797,0.220758 -0.339682,0.29333 -0.453792,0.379037 -0.129533,0.09729 -0.202411,0.139719 -0.264051,0.153733 -0.09067,0.02063 -0.198117,0.129628 -0.307832,0.312309 -0.06269,0.104376 -0.0966,0.176443 -0.129935,0.276114 -0.07765,0.232145 -0.09719,0.44933 -0.04482,0.498031 0.02558,0.02377 0.04675,0.01762 0.198909,-0.05802 0.105664,-0.05252 0.130996,-0.06301 0.191012,-0.07903 0.35032,-0.09355 0.587353,-0.279575 0.689124,-0.540835 0.0077,-0.01961 0.01759,-0.04066 0.02209,-0.04678 0.02339,-0.03183 0.144249,-0.148268 0.31654,-0.304979 0.09047,-0.08229 0.461382,-0.412947 0.471788,-0.420588 0.0053,-0.004 0.0082,-0.0011 0.03083,0.02917 0.06337,0.08506 0.126091,0.187853 0.177797,0.291389 0.03773,0.07555 0.04286,0.09335 0.03973,0.137721 -0.0034,0.04721 -0.02599,0.102889 -0.06851,0.168248 -0.03191,0.0491 -0.07562,0.103454 -0.177309,0.220582 -0.128615,0.148147 -0.184273,0.229073 -0.209346,0.304398 -0.0077,0.02324 -0.0086,0.03078 -0.0087,0.07292 -1.13e-4,0.08752 0.01976,0.16265 0.111481,0.421256 0.02812,0.07933 0.0571,0.163193 0.06437,0.186363 0.04743,0.151192 0.05413,0.236328 0.02194,0.27854 -0.0081,0.01057 -0.06929,0.0461 -0.120271,0.06976 -0.216887,0.100687 -0.478331,0.145699 -0.751998,0.129469 z m 0.223063,-0.254155 c 0.08463,-0.01477 0.163888,-0.06359 0.208645,-0.128559 0.02085,-0.03026 0.0273,-0.04324 0.03851,-0.07723 0.0082,-0.02486 0.0091,-0.03213 0.0093,-0.07454 2.59e-4,-0.05486 -0.0038,-0.07352 -0.02528,-0.118282 -0.07374,-0.153337 -0.274679,-0.217008 -0.439226,-0.13918 -0.08347,0.03948 -0.144414,0.111688 -0.164672,0.19511 -0.0065,0.02684 -0.0073,0.08566 -0.0015,0.11258 0.02175,0.09986 0.09482,0.178704 0.200983,0.216833 0.04916,0.01766 0.117781,0.02291 0.17312,0.01327 z m -1.62658,-1.511279 c 0.113922,-0.02853 0.201478,-0.111218 0.228654,-0.215985 0.0093,-0.03581 0.0093,-0.09058 0,-0.126383 -0.0126,-0.04864 -0.03476,-0.0878 -0.07125,-0.125939 -0.0397,-0.0415 -0.09344,-0.07235 -0.154165,-0.08848 -0.02884,-0.0076 -0.0383,-0.0086 -0.08589,-0.0086 -0.0473,0 -0.05711,0.0011 -0.08495,0.0084 -0.118096,0.03153 -0.205693,0.1176 -0.227593,0.223607 -0.02554,0.123663 0.03871,0.24725 0.159552,0.306876 0.0297,0.01466 0.06075,0.02512 0.09248,0.03116 0.03311,0.0063 0.109265,0.0038 0.143161,-0.0046 z m 0.891915,-0.642351 c 0.145989,-0.01628 0.259578,-0.117375 0.280105,-0.249303 0.02239,-0.143975 -0.08627,-0.285008 -0.244986,-0.317928 -0.03948,-0.0082 -0.10314,-0.0082 -0.142621,0 -0.118415,0.02455 -0.209848,0.107341 -0.240212,0.217477 -0.0088,0.03187 -0.0082,0.09737 0.0011,0.130122 0.01395,0.04877 0.03281,0.08221 0.06713,0.118867 0.05267,0.05629 0.123568,0.09136 0.203503,0.100653 0.03398,0.004 0.04138,0.004 0.07591,1.12e-4 z m -0.303182,1.336786 c -0.02516,-0.03198 -0.01208,-0.145805 0.03875,-0.336829 0.01294,-0.04866 0.0204,-0.06973 0.03551,-0.100462 0.07317,-0.14868 0.223232,-0.251149 0.36783,-0.251149 h 0.03015 l 0.01241,-0.01702 c 0.02149,-0.02939 0.07404,-0.09079 0.09403,-0.109779 0.03296,-0.03134 0.06707,-0.04292 0.106433,-0.03618 0.0291,0.005 0.04504,0.01354 0.07829,0.04192 0.06128,0.05233 0.08883,0.07957 0.09745,0.09634 0.01744,0.03389 0.0091,0.08087 -0.01924,0.107935 -0.01399,0.01338 -0.0743,0.056 -0.113344,0.08009 l -0.03094,0.01909 -0.0019,0.02812 c -0.01084,0.152498 -0.168024,0.27451 -0.453199,0.351754 -0.05939,0.01608 -0.07403,0.02437 -0.15185,0.08581 -0.06626,0.05232 -0.07711,0.05717 -0.09034,0.04037 z m 0.928117,-0.768904 c -0.009,-0.0034 -0.01972,-0.0079 -0.02389,-0.01012 -0.0081,-0.0044 -0.127816,-0.108662 -0.145366,-0.126692 -0.03285,-0.03374 -0.03566,-0.09218 -0.0063,-0.129139 0.02509,-0.03153 0.309782,-0.271469 0.473888,-0.399413 0.278789,-0.217357 0.511208,-0.370174 0.638769,-0.419992 0.03735,-0.01459 0.07708,-0.02193 0.09395,-0.0174 0.07301,0.01968 0.0114,0.146346 -0.17987,0.369814 -0.158382,0.185039 -0.406019,0.431145 -0.6631,0.659005 -0.08043,0.07129 -0.09171,0.07769 -0.13919,0.07905 -0.02558,7.5e-4 -0.03611,-3.75e-4 -0.04892,-0.0052 z"
       id="path302" />
    <rect
       style="fill:#000000;stroke:none;stroke-width:1;stop-color:#000000"
       id="rect310"
       width="6.3499999"
       height="4.2333336"
       x="36.512501"
       y="59.266666"
       inkscape:export-xdpi="96"
       inkscape:export-ydpi="96"
       inkscape:export-filename="C:\Users\hjvanderpol\OneDrive\03 HenkJan\14 InternetOfThings\03 ESP Projects\13 Nachtlampje\02 User interface\Icons\White.png" />
    <text
       xml:space="preserve"
       style="font-style:normal;font-variant:normal;font-weight:bold;font-stretch:normal;font-size:2.81472px;line-height:1.25;font-family:BigNoodleTitling;-inkscape-font-specification:'BigNoodleTitling Bold';font-variant-ligatures:normal;font-variant-position:normal;font-variant-caps:normal;font-variant-numeric:normal;font-variant-alternates:normal;font-variant-east-asian:normal;font-feature-settings:normal;font-variation-settings:normal;text-indent:0;text-align:start;text-decoration:none;text-decoration-line:none;text-decoration-style:solid;text-decoration-color:#000000;letter-spacing:0px;word-spacing:0px;text-transform:none;writing-mode:lr-tb;direction:ltr;text-orientation:mixed;dominant-baseline:auto;baseline-shift:baseline;text-anchor:start;white-space:normal;shape-padding:0;shape-margin:0;inline-size:0;opacity:1;vector-effect:none;fill:#ffffff;fill-opacity:1;stroke:none;stroke-width:0.264584;stroke-linecap:butt;stroke-linejoin:miter;stroke-miterlimit:4;stroke-dasharray:none;stroke-dashoffset:0;stroke-opacity:1;stop-color:#000000;stop-opacity:1"
       x="36.475498"
       y="62.711803"
       id="text314"
       transform="translate(0.76882997,-0.31798553)"><tspan
         sodipodi:role="line"
         id="tspan312"
         x="36.475498"
         y="62.711803"
         style="font-style:normal;font-variant:normal;font-weight:bold;font-stretch:normal;font-size:2.81472px;line-height:1.25;font-family:BigNoodleTitling;-inkscape-font-specification:'BigNoodleTitling Bold';font-variant-ligatures:normal;font-variant-position:normal;font-variant-caps:normal;font-variant-numeric:normal;font-variant-alternates:normal;font-variant-east-asian:normal;font-feature-settings:normal;font-variation-settings:normal;text-indent:0;text-align:start;text-decoration:none;text-decoration-line:none;text-decoration-style:solid;text-decoration-color:#000000;letter-spacing:0px;word-spacing:0px;text-transform:none;writing-mode:lr-tb;direction:ltr;text-orientation:mixed;dominant-baseline:auto;baseline-shift:baseline;text-anchor:start;white-space:normal;shape-padding:0;shape-margin:0;inline-size:0;vector-effect:none;fill:#ffffff;fill-opacity:1;stroke:none;stroke-width:0.264584;stroke-linecap:butt;stroke-linejoin:miter;stroke-miterlimit:4;stroke-dasharray:none;stroke-dashoffset:0;stroke-opacity:1;stop-color:#000000;stop-opacity:1">WHITE</tspan></text>
    <rect
       style="fill:#000000;stroke:none;stroke-width:1;stop-color:#000000"
       id="rect316"
       width="6.3499999"
       height="4.2333336"
       x="43.127083"
       y="59.266666"
       inkscape:export-xdpi="96"
       inkscape:export-ydpi="96"
       inkscape:export-filename="C:\Users\hjvanderpol\OneDrive\03 HenkJan\14 InternetOfThings\03 ESP Projects\13 Nachtlampje\02 User interface\Icons\Yellow.png" />
    <text
       xml:space="preserve"
       style="font-style:normal;font-variant:normal;font-weight:bold;font-stretch:normal;font-size:2.81472px;line-height:1.25;font-family:BigNoodleTitling;-inkscape-font-specification:'BigNoodleTitling Bold';font-variant-ligatures:normal;font-variant-position:normal;font-variant-caps:normal;font-variant-numeric:normal;font-variant-alternates:normal;font-variant-east-asian:normal;font-feature-settings:normal;font-variation-settings:normal;text-indent:0;text-align:start;text-decoration:none;text-decoration-line:none;text-decoration-style:solid;text-decoration-color:#000000;letter-spacing:0px;word-spacing:0px;text-transform:none;writing-mode:lr-tb;direction:ltr;text-orientation:mixed;dominant-baseline:auto;baseline-shift:baseline;text-anchor:start;white-space:normal;shape-padding:0;shape-margin:0;inline-size:0;opacity:1;vector-effect:none;fill:#ffffff;fill-opacity:1;stroke:none;stroke-width:0.264584;stroke-linecap:butt;stroke-linejoin:miter;stroke-miterlimit:4;stroke-dasharray:none;stroke-dashoffset:0;stroke-opacity:1;stop-color:#000000;stop-opacity:1"
       x="43.097301"
       y="62.193382"
       id="text320"
       transform="translate(0.17615204,0.20043564)"><tspan
         sodipodi:role="line"
         id="tspan318"
         x="43.097301"
         y="62.193382"
         style="font-style:normal;font-variant:normal;font-weight:bold;font-stretch:normal;font-size:2.81472px;line-height:1.25;font-family:BigNoodleTitling;-inkscape-font-specification:'BigNoodleTitling Bold';font-variant-ligatures:normal;font-variant-position:normal;font-variant-caps:normal;font-variant-numeric:normal;font-variant-alternates:normal;font-variant-east-asian:normal;font-feature-settings:normal;font-variation-settings:normal;text-indent:0;text-align:start;text-decoration:none;text-decoration-line:none;text-decoration-style:solid;text-decoration-color:#000000;letter-spacing:0px;word-spacing:0px;text-transform:none;writing-mode:lr-tb;direction:ltr;text-orientation:mixed;dominant-baseline:auto;baseline-shift:baseline;text-anchor:start;white-space:normal;shape-padding:0;shape-margin:0;inline-size:0;vector-effect:none;fill:#ffffff;fill-opacity:1;stroke:none;stroke-width:0.264584;stroke-linecap:butt;stroke-linejoin:miter;stroke-miterlimit:4;stroke-dasharray:none;stroke-dashoffset:0;stroke-opacity:1;stop-color:#000000;stop-opacity:1">yellow</tspan></text>
    <rect
       style="fill:#000000;stroke:none;stroke-width:1;stop-color:#000000"
       id="rect338"
       width="6.3499999"
       height="4.2333336"
       x="49.741669"
       y="59.266666"
       inkscape:export-xdpi="96"
       inkscape:export-ydpi="96"
       inkscape:export-filename="C:\Users\hjvanderpol\OneDrive\03 HenkJan\14 InternetOfThings\03 ESP Projects\13 Nachtlampje\02 User interface\Icons\Orange.png" />
    <text
       xml:space="preserve"
       style="font-style:normal;font-variant:normal;font-weight:bold;font-stretch:normal;font-size:2.81472px;line-height:1.25;font-family:BigNoodleTitling;-inkscape-font-specification:'BigNoodleTitling Bold';letter-spacing:0px;word-spacing:0px;fill:#ffffff;fill-opacity:1;stroke:none;stroke-width:0.264584"
       x="49.761372"
       y="62.393818"
       id="text342"><tspan
         sodipodi:role="line"
         id="tspan340"
         x="49.761372"
         y="62.393818"
         style="font-style:normal;font-variant:normal;font-weight:bold;font-stretch:normal;font-family:BigNoodleTitling;-inkscape-font-specification:'BigNoodleTitling Bold';fill:#ffffff;stroke-width:0.264584">orange</tspan></text>
    <rect
       style="fill:#000000;stroke:none;stroke-width:1;stop-color:#000000"
       id="rect366"
       width="6.3499999"
       height="4.2333336"
       x="56.356251"
       y="59.266666"
       inkscape:export-xdpi="96"
       inkscape:export-ydpi="96"
       inkscape:export-filename="C:\Users\hjvanderpol\OneDrive\03 HenkJan\14 InternetOfThings\03 ESP Projects\13 Nachtlampje\02 User interface\Icons\Red.png" />
    <text
       xml:space="preserve"
       style="font-style:normal;font-variant:normal;font-weight:bold;font-stretch:normal;font-size:2.81472px;line-height:1.25;font-family:BigNoodleTitling;-inkscape-font-specification:'BigNoodleTitling Bold';letter-spacing:0px;word-spacing:0px;fill:#ffffff;fill-opacity:1;stroke:none;stroke-width:0.264584"
       x="58.015526"
       y="62.393818"
       id="text370"><tspan
         sodipodi:role="line"
         id="tspan368"
         x="58.015526"
         y="62.393818"
         style="font-style:normal;font-variant:normal;font-weight:bold;font-stretch:normal;font-family:BigNoodleTitling;-inkscape-font-specification:'BigNoodleTitling Bold';fill:#ffffff;stroke-width:0.264584">RED</tspan></text>
    <g
       id="g392"
       inkscape:export-filename="C:\Users\hjvanderpol\OneDrive\03 HenkJan\14 InternetOfThings\03 ESP Projects\13 Nachtlampje\02 User interface\Icons\left.png"
       inkscape:export-xdpi="96"
       inkscape:export-ydpi="96">
      <rect
         style="fill:#000000;stroke:none;stroke-width:1;stop-color:#000000"
         id="rect372"
         width="3.1750007"
         height="3.1750038"
         x="36.777084"
         y="64.558334"
         inkscape:export-xdpi="96"
         inkscape:export-ydpi="96"
         inkscape:export-filename="C:\Users\hjvanderpol\OneDrive\03 HenkJan\14 InternetOfThings\03 ESP Projects\13 Nachtlampje\02 User interface\Icons\left.png" />
      <path
         id="path374"
         style="fill:#ffffff;stroke:none;stroke-width:0.264583px;stroke-linecap:butt;stroke-linejoin:miter;stroke-opacity:1"
         d="m 38.629167,64.558334 -1.852084,1.587499 1.852084,1.587501 v -0.79375 l 1.322916,0 v -1.5875 h -1.322916 z"
         sodipodi:nodetypes="cccccccc" />
    </g>
    <g
       id="g105"
       inkscape:export-filename="C:\Users\hjvanderpol\OneDrive\03 HenkJan\14 InternetOfThings\03 ESP Projects\13 Nachtlampje\02 User interface\Icons\right.png"
       inkscape:export-xdpi="96"
       inkscape:export-ydpi="96"
       transform="matrix(-1,0,0,1,80.168751,0)">
      <rect
         style="fill:#000000;stroke:none;stroke-width:1;stop-color:#000000"
         id="rect101"
         width="3.1750007"
         height="3.1750038"
         x="36.777084"
         y="64.558334"
         inkscape:export-xdpi="96"
         inkscape:export-ydpi="96"
         inkscape:export-filename="C:\Users\hjvanderpol\OneDrive\03 HenkJan\14 InternetOfThings\03 ESP Projects\13 Nachtlampje\02 User interface\Icons\left.png" />
      <path
         id="path103"
         style="fill:#ffffff;stroke:none;stroke-width:0.264583px;stroke-linecap:butt;stroke-linejoin:miter;stroke-opacity:1"
         d="m 38.629167,64.558334 -1.852084,1.587499 1.852084,1.587501 v -0.79375 h 1.322916 v -1.5875 h -1.322916 z"
         sodipodi:nodetypes="cccccccc" />
    </g>
    <rect
       style="fill:#ffffff;stroke:none;stroke-width:0.15;stop-color:#000000"
       id="rect273"
       width="5.2916665"
       height="5.2916665"
       x="1.3229166"
       y="31.75" />
    <rect
       style="fill:#ffff71;stroke:none;stroke-width:0.15;stop-color:#000000;fill-opacity:1"
       id="rect275"
       width="5.2916665"
       height="5.2916665"
       x="6.6145835"
       y="31.75" />
    <rect
       style="fill:#ffc080;fill-opacity:1;stroke:none;stroke-width:0.15;stop-color:#000000"
       id="rect1100"
       width="5.2916665"
       height="5.2916665"
       x="11.90625"
       y="31.75" />
    <rect
       style="fill:#ff8080;fill-opacity:1;stroke:none;stroke-width:0.15;stop-color:#000000"
       id="rect1102"
       width="5.2916665"
       height="5.2916665"
       x="17.197916"
       y="31.75" />
  </g>
</svg>
