#define im_width 10
#define im_height 10
static char im_bits[] = {
0x00,0x00,0x38,0x00,0x7c,0x00,0xfe,0x00,0xfe,0x00,0xfe,0x00,0x7c,0x00,0x38,
0x00,0x00,0x00,0x00,0x00
};
