#define im_width 10
#define im_height 10
static char im_bits[] = {
0x00,0x00,0xe0,0x01,0xf0,0x01,0xfc,0x01,0xfe,0x01,0xfe,0x01,0xfc,0x01,0xf0,
0x01,0xc0,0x01,0x00,0x00
};
