#define im_width 8
#define im_height 16
static char im_bits[] = {
0xff,0xff,0x18,0x18,0x18,0x18,0x18,0x18,0x18,0x00,0x3c,0x7e,0x7e,0x7e,0x3c,
0x00
};
