#define im_width 8
#define im_height 8
static char im_bits[] = {
0x0f,0x11,0x11,0x0f,0x01,0x01,0x01,0x00
};
