#define im_width 18
#define im_height 8
static char im_bits[] = {
0xcf,0xf3,0x01,0x51,0x14,0x00,0x51,0x14,0x00,0xcf,0xf3,0x01,0x41,0x14,0x00,
0x41,0x14,0x00,0xc1,0xf3,0x01,0x00,0x00,0x00
};
