#define im_width 8
#define im_height 8
static char im_bits[] = {
0xc3,0x81,0x24,0x00,0x42,0x24,0x99,0xc3
};
