#define im_width 8
#define im_height 8
static char im_bits[] = {
0x80,0x86,0x82,0x83,0xa3,0xbf,0x8f,0xff
};
