#define im_width 8
#define im_height 10
static char im_bits[] = {
0x41,0x41,0x22,0x22,0x22,0x14,0x14,0x14,0x08,0x08
};
