#define im_width 8
#define im_height 8
static char im_bits[] = {
0x00,0x42,0x42,0x24,0x24,0x18,0x18,0x00
};
