#define Color_width 20
#define Color_height 20
static unsigned char Color_bits[] = {
   0x00, 0x02, 0x00, 0x80, 0x1f, 0x00, 0xe0, 0x79, 0x00, 0x60, 0x60, 0x00,
   0x30, 0xc0, 0x00, 0x30, 0xc0, 0x00, 0x30, 0xc0, 0x00, 0xf0, 0xf9, 0x00,
   0xfc, 0xff, 0x03, 0x7e, 0xef, 0x07, 0xe6, 0x7f, 0x06, 0xc3, 0x3f, 0x0c,
   0x83, 0x1f, 0x0c, 0x83, 0x19, 0x0c, 0x03, 0x0b, 0x0c, 0x06, 0x0f, 0x06,
   0x06, 0x0f, 0x06, 0x5c, 0xdf, 0x03, 0xf8, 0xff, 0x01, 0x40, 0x20, 0x00 };
