#define Exit_width 20
#define Exit_height 20
static unsigned char Exit_bits[] = {
   0x00, 0xe0, 0x0f, 0x00, 0xee, 0x0f, 0x00, 0xee, 0x0f, 0x00, 0xee, 0x0f,
   0xc0, 0xec, 0x0f, 0xf0, 0xe3, 0x0f, 0xf8, 0xe7, 0x0f, 0x98, 0xff, 0x0f,
   0xd8, 0xff, 0x0f, 0xc0, 0x03, 0x08, 0xe0, 0x03, 0x0c, 0xe0, 0x67, 0x0e,
   0xf0, 0x6f, 0x0f, 0x70, 0xee, 0x0f, 0x3e, 0xee, 0x0f, 0x1e, 0xe7, 0x0f,
   0x00, 0xe7, 0x0f, 0x00, 0xe3, 0x0f, 0x00, 0xe0, 0x0f, 0x00, 0xe0, 0x0f };
