#define ExitCancel_width 20
#define ExitCancel_height 20
static unsigned char ExitCancel_bits[] = {
   0x00, 0x00, 0x00, 0x00, 0x00, 0x00, 0x00, 0x00, 0x00, 0xe0, 0x7f, 0x00,
   0xf8, 0xff, 0x01, 0xfc, 0xff, 0x03, 0xfe, 0xff, 0x07, 0x3f, 0xc0, 0x0f,
   0x0f, 0x00, 0x0f, 0x07, 0x00, 0x0e, 0x07, 0x01, 0x0f, 0x1f, 0x83, 0x0f,
   0xff, 0xe7, 0x07, 0xfe, 0xef, 0x07, 0xfc, 0xef, 0x03, 0xf0, 0xe7, 0x00,
   0x00, 0x03, 0x00, 0x00, 0x01, 0x00, 0x00, 0x00, 0x00, 0x00, 0x00, 0x00 };
