#define ExitConfirm_width 20
#define ExitConfirm_height 20
static unsigned char ExitConfirm_bits[] = {
   0x00, 0x00, 0x00, 0x00, 0x00, 0x00, 0x00, 0x00, 0x00, 0x00, 0x00, 0x00,
   0x00, 0x00, 0x00, 0x00, 0x00, 0x00, 0x3b, 0x9c, 0x0d, 0x7b, 0xbd, 0x0d,
   0x63, 0xb1, 0x0d, 0x73, 0xbc, 0x0f, 0x7b, 0x3c, 0x0f, 0x1b, 0x31, 0x0c,
   0x7b, 0x3d, 0x0c, 0x7b, 0x1c, 0x0c, 0x00, 0x00, 0x00, 0x00, 0x00, 0x00,
   0x00, 0x00, 0x00, 0x00, 0x00, 0x00, 0x00, 0x00, 0x00, 0x00, 0x00, 0x00 };
