#define Intensity035_width 20
#define Intensity035_height 20
static unsigned char Intensity035_bits[] = {
   0xf0, 0xf9, 0x01, 0xf8, 0xfb, 0x01, 0x98, 0x1b, 0x00, 0xc0, 0xfb, 0x00,
   0xc0, 0xf9, 0x01, 0x80, 0xc3, 0x01, 0x98, 0xdb, 0x01, 0xf8, 0xfb, 0x01,
   0xf0, 0xf1, 0x00, 0x00, 0x00, 0x00, 0xff, 0xff, 0x0f, 0xff, 0xff, 0x0f,
   0xff, 0x00, 0x0c, 0xff, 0x00, 0x0c, 0xff, 0x00, 0x0c, 0xff, 0x00, 0x0c,
   0xff, 0x00, 0x0c, 0xff, 0x00, 0x0c, 0xff, 0xff, 0x0f, 0xff, 0xff, 0x0f };
