#define Intensity100_width 20
#define Intensity100_height 20
static unsigned char Intensity100_bits[] = {
   0x8c, 0x83, 0x03, 0xce, 0xc7, 0x07, 0xef, 0xee, 0x0e, 0x6c, 0x6c, 0x0c,
   0x6c, 0x6c, 0x0c, 0x6c, 0x6c, 0x0c, 0xec, 0xee, 0x0e, 0xcc, 0xc7, 0x07,
   0x8c, 0x83, 0x03, 0x00, 0x00, 0x00, 0xff, 0xff, 0x0f, 0xff, 0xff, 0x0f,
   0xff, 0xff, 0x0f, 0xff, 0xff, 0x0f, 0xff, 0xff, 0x0f, 0xff, 0xff, 0x0f,
   0xff, 0xff, 0x0f, 0xff, 0xff, 0x0f, 0xff, 0xff, 0x0f, 0xff, 0xff, 0x0f };
