#define Intensity025_width 20
#define Intensity025_height 20
static unsigned char Intensity025_bits[] = {
   0xf0, 0xf9, 0x01, 0xf8, 0xfb, 0x01, 0x18, 0x1b, 0x00, 0x80, 0xfb, 0x00,
   0xc0, 0xf9, 0x01, 0xe0, 0x80, 0x01, 0x70, 0x98, 0x01, 0xf8, 0xfb, 0x01,
   0xf8, 0xf3, 0x00, 0x00, 0x00, 0x00, 0xff, 0xff, 0x0f, 0xff, 0xff, 0x0f,
   0x3f, 0x00, 0x0c, 0x3f, 0x00, 0x0c, 0x3f, 0x00, 0x0c, 0x3f, 0x00, 0x0c,
   0x3f, 0x00, 0x0c, 0x3f, 0x00, 0x0c, 0xff, 0xff, 0x0f, 0xff, 0xff, 0x0f };
