#define Intensity050_width 20
#define Intensity050_height 20
static unsigned char Intensity050_bits[] = {
   0xf8, 0xf9, 0x00, 0xf8, 0xf9, 0x00, 0x18, 0xdc, 0x01, 0xf8, 0x8c, 0x01,
   0xf8, 0x8d, 0x01, 0x80, 0x8d, 0x01, 0x98, 0xdd, 0x01, 0xf8, 0xf8, 0x00,
   0xf0, 0xf8, 0x00, 0x00, 0x00, 0x00, 0xff, 0xff, 0x0f, 0xff, 0xff, 0x0f,
   0xff, 0x03, 0x0c, 0xff, 0x03, 0x0c, 0xff, 0x03, 0x0c, 0xff, 0x03, 0x0c,
   0xff, 0x03, 0x0c, 0xff, 0x03, 0x0c, 0xff, 0xff, 0x0f, 0xff, 0xff, 0x0f };
