#define Intensity070_width 20
#define Intensity070_height 20
static unsigned char Intensity070_bits[] = {
   0xf8, 0x73, 0x00, 0xf8, 0xfb, 0x00, 0x80, 0xdd, 0x01, 0xc0, 0x8d, 0x01,
   0xc0, 0x8c, 0x01, 0xe0, 0x8c, 0x01, 0x60, 0xdc, 0x01, 0x70, 0xf8, 0x00,
   0x70, 0x70, 0x00, 0x00, 0x00, 0x00, 0xff, 0xff, 0x0f, 0xff, 0xff, 0x0f,
   0xff, 0x1f, 0x0c, 0xff, 0x1f, 0x0c, 0xff, 0x1f, 0x0c, 0xff, 0x1f, 0x0c,
   0xff, 0x1f, 0x0c, 0xff, 0x1f, 0x0c, 0xff, 0xff, 0x0f, 0xff, 0xff, 0x0f };
