#define Intensity_width 20
#define Intensity_height 20
static unsigned char Intensity_bits[] = {
   0x80, 0x0f, 0x00, 0xe0, 0x7f, 0x00, 0xf8, 0xe7, 0x00, 0xfc, 0x87, 0x01,
   0xfc, 0x07, 0x03, 0xfe, 0x07, 0x06, 0xff, 0x07, 0x06, 0xff, 0x07, 0x0c,
   0xff, 0x07, 0x0c, 0xff, 0x07, 0x0c, 0xff, 0x07, 0x0c, 0xff, 0x07, 0x0c,
   0xff, 0x07, 0x0c, 0xfe, 0x07, 0x06, 0xfe, 0x07, 0x06, 0xfc, 0x07, 0x03,
   0xfc, 0x87, 0x01, 0xf8, 0xf7, 0x01, 0xe0, 0x7f, 0x00, 0x80, 0x0f, 0x00 };
