#define Timer05_width 20
#define Timer05_height 20
static unsigned char Timer05_bits[] = {
   0x00, 0x00, 0x00, 0x00, 0x00, 0x00, 0x00, 0x00, 0x00, 0xe0, 0x7f, 0x00,
   0xe0, 0x7f, 0x00, 0xe0, 0x7f, 0x00, 0xe0, 0x00, 0x00, 0xe0, 0x00, 0x00,
   0xe0, 0x1f, 0x00, 0xe0, 0x3f, 0x00, 0xe0, 0x7f, 0x00, 0x00, 0x70, 0x00,
   0x00, 0x70, 0x00, 0xe0, 0x78, 0x00, 0xe0, 0x3f, 0x00, 0xe0, 0x3f, 0x00,
   0x80, 0x1f, 0x00, 0x00, 0x00, 0x00, 0x00, 0x00, 0x00, 0x00, 0x00, 0x00 };
