#define Timer_width 20
#define Timer_height 20
static unsigned char Timer_bits[] = {
   0x00, 0x06, 0x00, 0x20, 0x46, 0x00, 0x40, 0x20, 0x00, 0x00, 0x06, 0x00,
   0x00, 0x06, 0x00, 0x02, 0x06, 0x04, 0x04, 0x06, 0x02, 0x00, 0x06, 0x00,
   0x00, 0x06, 0x00, 0x03, 0x06, 0x0c, 0x03, 0x06, 0x0c, 0x00, 0x0e, 0x00,
   0x00, 0x1e, 0x00, 0x04, 0x3c, 0x02, 0x02, 0x78, 0x04, 0x00, 0x30, 0x00,
   0x00, 0x00, 0x00, 0x40, 0x20, 0x00, 0x20, 0x46, 0x00, 0x00, 0x06, 0x00 };
