#define Timer20_width 20
#define Timer20_height 20
static unsigned char Timer20_bits[] = {
   0x00, 0x00, 0x00, 0x00, 0x00, 0x00, 0x00, 0x00, 0x00, 0x38, 0xc0, 0x01,
   0xfe, 0xf0, 0x07, 0xfe, 0xf1, 0x07, 0xcf, 0x79, 0x0f, 0xc7, 0x39, 0x0e,
   0xe0, 0x39, 0x0e, 0xe0, 0x38, 0x0e, 0xf0, 0x38, 0x0e, 0x78, 0x38, 0x0e,
   0x3c, 0x38, 0x0e, 0x1e, 0x78, 0x0f, 0xff, 0xf3, 0x07, 0xff, 0xf3, 0x07,
   0x00, 0x00, 0x00, 0x00, 0x00, 0x00, 0x00, 0x00, 0x00, 0x00, 0x00, 0x00 };
