#define Timer10_width 20
#define Timer10_height 20
static unsigned char Timer10_bits[] = {
   0x00, 0x00, 0x00, 0x00, 0x00, 0x00, 0x00, 0x00, 0x00, 0x70, 0xe0, 0x01,
   0x78, 0xf0, 0x03, 0x7e, 0xf8, 0x07, 0x7f, 0x38, 0x07, 0x7f, 0x3c, 0x0f,
   0x78, 0x3c, 0x0f, 0x78, 0x3c, 0x0f, 0x78, 0x3c, 0x0f, 0x78, 0x3c, 0x0f,
   0x78, 0x3c, 0x0f, 0x78, 0x38, 0x07, 0x78, 0xf8, 0x07, 0x78, 0xf0, 0x03,
   0x78, 0xe0, 0x01, 0x00, 0x00, 0x00, 0x00, 0x00, 0x00, 0x00, 0x00, 0x00 };
