#define Timer03_width 20
#define Timer03_height 20
static unsigned char Timer03_bits[] = {
   0x00, 0x00, 0x00, 0x00, 0x00, 0x00, 0x00, 0x00, 0x00, 0x00, 0x0f, 0x00,
   0xc0, 0x3f, 0x00, 0xe0, 0x3f, 0x00, 0xe0, 0x79, 0x00, 0x00, 0x78, 0x00,
   0x00, 0x3f, 0x00, 0x00, 0x1f, 0x00, 0x00, 0x3f, 0x00, 0x00, 0x78, 0x00,
   0x00, 0x78, 0x00, 0xe0, 0x79, 0x00, 0xe0, 0x3f, 0x00, 0xc0, 0x3f, 0x00,
   0x00, 0x0f, 0x00, 0x00, 0x00, 0x00, 0x00, 0x00, 0x00, 0x00, 0x00, 0x00 };
