#define Yellow_width 20
#define Yellow_height 20
static unsigned char Yellow_bits[] = {
   0x00, 0x00, 0x00, 0x00, 0x00, 0x00, 0x00, 0x00, 0x00, 0x00, 0x06, 0x00,
   0x10, 0x86, 0x00, 0x38, 0xc6, 0x01, 0x70, 0xe0, 0x00, 0x20, 0x4f, 0x00,
   0x80, 0x1f, 0x00, 0xc0, 0x3f, 0x00, 0xdc, 0xbf, 0x03, 0xdc, 0xbf, 0x03,
   0xc0, 0x3f, 0x00, 0x80, 0x1f, 0x00, 0x20, 0x4f, 0x00, 0x70, 0xe0, 0x00,
   0x38, 0xc6, 0x01, 0xff, 0xff, 0x0f, 0xff, 0xff, 0x0f, 0xff, 0xff, 0x0f };
